<svg xmlns="http://www.w3.org/2000/svg" xmlns:xlink="http://www.w3.org/1999/xlink" width="600" zoomAndPan="magnify" viewBox="0 0 450 449.999984" height="600" preserveAspectRatio="xMidYMid meet" version="1.0"><defs><clipPath id="d426781fcb"><path d="M 312.613281 392.316406 L 323.554688 392.316406 L 323.554688 405 L 312.613281 405 Z M 312.613281 392.316406 " clip-rule="nonzero"/></clipPath><clipPath id="4069ac5a87"><path d="M 323.394531 395.707031 L 320.28125 403.335938 C 319.851562 404.378906 318.789062 405.027344 317.664062 404.910156 C 316.902344 404.832031 316 404.683594 315.121094 404.417969 C 313.359375 403.886719 312.367188 402.027344 312.894531 400.265625 L 315.25 392.410156 Z M 323.394531 395.707031 " clip-rule="nonzero"/></clipPath><clipPath id="bbc9f2b810"><path d="M 323.398438 395.707031 L 320.28125 403.332031 C 319.851562 404.378906 318.792969 405.027344 317.667969 404.910156 C 316.902344 404.832031 316 404.683594 315.121094 404.417969 C 313.363281 403.882812 312.371094 402.023438 312.898438 400.265625 L 315.25 392.410156 L 323.398438 395.707031 " clip-rule="nonzero"/></clipPath><clipPath id="4bd6f424ca"><path d="M 374.777344 401.847656 L 384.554688 401.847656 L 384.554688 413.242188 L 374.777344 413.242188 Z M 374.777344 401.847656 " clip-rule="nonzero"/></clipPath><clipPath id="f0034d1704"><path d="M 384.40625 402.894531 C 384.40625 402.894531 383.144531 408.464844 382.175781 412.148438 C 382 412.816406 381.285156 413.183594 380.632812 412.949219 C 378.691406 412.257812 377.109375 411.949219 375.960938 412.105469 C 375.429688 412.175781 374.964844 411.734375 374.957031 411.199219 L 374.835938 401.945312 Z M 384.40625 402.894531 " clip-rule="nonzero"/></clipPath><clipPath id="d30d1bb024"><path d="M 384.40625 402.894531 C 384.40625 402.894531 383.144531 408.464844 382.175781 412.148438 C 381.996094 412.816406 381.285156 413.183594 380.632812 412.949219 C 378.6875 412.257812 377.109375 411.949219 375.957031 412.105469 C 375.425781 412.175781 374.964844 411.734375 374.957031 411.199219 L 374.835938 401.945312 L 384.40625 402.894531 " clip-rule="nonzero"/></clipPath><clipPath id="1a2c20488e"><path d="M 319.132812 254.445312 L 357.546875 254.445312 L 357.546875 295 L 319.132812 295 Z M 319.132812 254.445312 " clip-rule="nonzero"/></clipPath><clipPath id="ebdd2e0ef9"><path d="M 329.898438 288.234375 C 331.511719 287.347656 333.398438 287.101562 335.183594 287.546875 L 338.75 288.429688 C 339.507812 288.617188 340.257812 288.097656 340.34375 287.324219 L 344.03125 254.550781 C 348.640625 256.738281 355.292969 256.472656 357.488281 256.3125 L 349 294.953125 L 319.300781 294.953125 Z M 329.898438 288.234375 " clip-rule="nonzero"/></clipPath><clipPath id="9116d22c06"><path d="M 329.898438 288.234375 C 331.511719 287.347656 333.398438 287.101562 335.1875 287.546875 L 338.75 288.429688 C 339.507812 288.621094 340.257812 288.097656 340.34375 287.324219 L 344.035156 254.550781 C 348.640625 256.738281 355.292969 256.472656 357.488281 256.3125 L 349 294.953125 L 319.300781 294.953125 L 329.898438 288.234375 " clip-rule="nonzero"/></clipPath><clipPath id="5f1235ffff"><path d="M 250.914062 194.691406 L 322.390625 194.691406 L 322.390625 259.09375 L 250.914062 259.09375 Z M 250.914062 194.691406 " clip-rule="nonzero"/></clipPath><clipPath id="ed7a613513"><path d="M 250.988281 217.140625 L 251.886719 214.160156 C 252.402344 212.449219 253.671875 211.058594 255.335938 210.394531 L 271.570312 203.875 C 271.570312 203.875 271.816406 201.796875 268.140625 200.382812 C 264.464844 198.96875 265.324219 194.859375 265.324219 194.859375 C 265.324219 194.859375 270.347656 197.144531 277.695312 200.773438 C 281.902344 202.847656 284.261719 206.507812 285.511719 209.269531 L 322.300781 254.054688 L 317.980469 257.015625 C 312.296875 260.914062 304.488281 259 301.261719 252.917969 L 281.332031 214.757812 C 271.324219 217.757812 261.203125 218.332031 250.988281 217.140625 Z M 250.988281 217.140625 " clip-rule="nonzero"/></clipPath><clipPath id="f7000deed6"><path d="M 250.988281 217.140625 L 251.886719 214.160156 C 252.402344 212.445312 253.671875 211.058594 255.335938 210.390625 L 271.574219 203.871094 C 271.574219 203.871094 271.816406 201.796875 268.140625 200.382812 C 264.46875 198.964844 265.324219 194.859375 265.324219 194.859375 C 265.324219 194.859375 270.347656 197.144531 277.695312 200.773438 C 281.902344 202.847656 284.261719 206.507812 285.511719 209.265625 L 322.300781 254.054688 L 317.980469 257.015625 C 312.300781 260.914062 304.488281 259 301.261719 252.917969 L 281.332031 214.753906 C 271.328125 217.757812 261.203125 218.332031 250.988281 217.140625 " clip-rule="nonzero"/></clipPath><clipPath id="dabdfa8346"><path d="M 304.789062 291.5625 L 350.769531 211.074219 L 268.5 164.207031 L 222.519531 244.695312 Z M 304.789062 291.5625 " clip-rule="nonzero"/></clipPath><clipPath id="2de0689f9c"><path d="M 324.253906 154.46875 L 343.8125 154.46875 L 343.8125 186.324219 L 324.253906 186.324219 Z M 324.253906 154.46875 " clip-rule="nonzero"/></clipPath><clipPath id="44d406f11b"><path d="M 334.136719 154.878906 L 343.59375 181.316406 C 343.59375 181.316406 335.21875 187.855469 329.109375 185.644531 L 324.34375 170.488281 C 324.34375 170.488281 327.980469 151.96875 334.136719 154.878906 Z M 334.136719 154.878906 " clip-rule="nonzero"/></clipPath><clipPath id="8769ad56ef"><path d="M 334.136719 154.882812 L 343.59375 181.316406 C 343.59375 181.316406 335.21875 187.855469 329.105469 185.644531 L 324.34375 170.488281 C 324.34375 170.488281 327.980469 151.96875 334.136719 154.882812 " clip-rule="nonzero"/></clipPath><clipPath id="e2860667e7"><path d="M 332.929688 197.410156 L 361.457031 171.851562 L 335.007812 142.414062 L 306.480469 167.976562 Z M 332.929688 197.410156 " clip-rule="nonzero"/></clipPath><linearGradient x1="0.0583426" gradientTransform="matrix(-47.247362, -52.58478, 52.658045, -47.181627, 347.729216, 188.154993)" y1="0" x2="0.575647" gradientUnits="userSpaceOnUse" y2="0" id="1343a433f6"><stop stop-opacity="1" stop-color="rgb(99.598694%, 99.598694%, 99.813843%)" offset="0"/><stop stop-opacity="1" stop-color="rgb(99.520874%, 99.520874%, 99.705505%)" offset="0.0625"/><stop stop-opacity="1" stop-color="rgb(99.320984%, 99.320984%, 99.598694%)" offset="0.125"/><stop stop-opacity="1" stop-color="rgb(99.151611%, 99.151611%, 99.552917%)" offset="0.1875"/><stop stop-opacity="1" stop-color="rgb(98.951721%, 98.951721%, 99.353027%)" offset="0.25"/><stop stop-opacity="1" stop-color="rgb(98.783875%, 98.783875%, 99.183655%)" offset="0.3125"/><stop stop-opacity="1" stop-color="rgb(98.583984%, 98.583984%, 98.983765%)" offset="0.375"/><stop stop-opacity="1" stop-color="rgb(98.228455%, 98.228455%, 98.799133%)" offset="0.5"/><stop stop-opacity="1" stop-color="rgb(98.028564%, 98.028564%, 98.643494%)" offset="0.5625"/><stop stop-opacity="1" stop-color="rgb(97.859192%, 97.859192%, 98.443604%)" offset="0.625"/><stop stop-opacity="1" stop-color="rgb(97.564697%, 97.564697%, 98.274231%)" offset="0.6875"/><stop stop-opacity="1" stop-color="rgb(97.355652%, 97.355652%, 98.074341%)" offset="0.75"/><stop stop-opacity="1" stop-color="rgb(97.20459%, 97.20459%, 97.999573%)" offset="0.8125"/><stop stop-opacity="1" stop-color="rgb(97.0047%, 97.0047%, 97.920227%)" offset="0.875"/><stop stop-opacity="1" stop-color="rgb(96.835327%, 96.835327%, 97.720337%)" offset="0.9375"/><stop stop-opacity="1" stop-color="rgb(96.635437%, 96.635437%, 97.599792%)" offset="1"/></linearGradient><clipPath id="f50673bf6f"><path d="M 305.863281 140.054688 L 329.609375 140.054688 L 329.609375 171.210938 L 305.863281 171.210938 Z M 305.863281 140.054688 " clip-rule="nonzero"/></clipPath><clipPath id="1502d1919f"><path d="M 305.90625 145.386719 C 305.90625 145.792969 315.019531 171.144531 315.019531 171.144531 L 329.402344 165.640625 L 324.34375 140.332031 C 324.34375 140.332031 305.90625 138.566406 305.90625 145.386719 Z M 305.90625 145.386719 " clip-rule="nonzero"/></clipPath><clipPath id="05e8796a05"><path d="M 305.90625 145.386719 C 305.90625 145.796875 315.019531 171.144531 315.019531 171.144531 L 329.398438 165.640625 L 324.339844 140.332031 C 324.339844 140.332031 305.90625 138.570312 305.90625 145.386719 " clip-rule="nonzero"/></clipPath><clipPath id="035a9d4b2f"><path d="M 325.207031 180.125 L 341.890625 144.382812 L 310.101562 129.585938 L 293.417969 165.328125 Z M 325.207031 180.125 " clip-rule="nonzero"/></clipPath><linearGradient x1="-0.643938" gradientTransform="matrix(-42.559118, -19.809005, 19.836604, -42.499903, 306.167077, 149.447475)" y1="0" x2="0.0896285" gradientUnits="userSpaceOnUse" y2="0" id="e3565cc668"><stop stop-opacity="1" stop-color="rgb(100%, 100%, 100%)" offset="0"/><stop stop-opacity="1" stop-color="rgb(100%, 100%, 100%)" offset="0.5"/><stop stop-opacity="1" stop-color="rgb(100%, 100%, 100%)" offset="0.75"/><stop stop-opacity="1" stop-color="rgb(100%, 100%, 100%)" offset="0.875"/><stop stop-opacity="1" stop-color="rgb(99.853516%, 99.853516%, 100%)" offset="0.9375"/><stop stop-opacity="1" stop-color="rgb(99.653625%, 99.653625%, 99.856567%)" offset="1"/></linearGradient><clipPath id="278c7c36e8"><path d="M 329.144531 147.496094 L 337 147.496094 L 337 158.65625 L 329.144531 158.65625 Z M 329.144531 147.496094 " clip-rule="nonzero"/></clipPath><clipPath id="20f64f98dd"><path d="M 331.441406 158.546875 C 331.441406 158.546875 327.59375 151.28125 330.136719 149 C 332.683594 146.71875 336.992188 147.089844 336.875 152.773438 C 336.730469 159.839844 331.441406 158.546875 331.441406 158.546875 Z M 331.441406 158.546875 " clip-rule="nonzero"/></clipPath><clipPath id="c542b5097b"><path d="M 331.441406 158.546875 C 331.441406 158.546875 327.59375 151.28125 330.136719 149 C 332.679688 146.71875 336.992188 147.09375 336.875 152.773438 C 336.730469 159.839844 331.441406 158.546875 331.441406 158.546875 " clip-rule="nonzero"/></clipPath><clipPath id="9a590c66d1"><path d="M 331.785156 164.503906 L 343.519531 153.988281 L 332.800781 142.054688 L 321.066406 152.570312 Z M 331.785156 164.503906 " clip-rule="nonzero"/></clipPath><linearGradient x1="0.412306" gradientTransform="matrix(-47.247362, -52.58478, 52.658045, -47.181627, 357.092245, 179.779193)" y1="0" x2="0.603952" gradientUnits="userSpaceOnUse" y2="0" id="464bca0d4d"><stop stop-opacity="1" stop-color="rgb(97.53418%, 97.53418%, 98.312378%)" offset="0"/><stop stop-opacity="1" stop-color="rgb(97.40448%, 97.40448%, 98.155212%)" offset="0.25"/><stop stop-opacity="1" stop-color="rgb(97.105408%, 97.105408%, 97.999573%)" offset="0.5"/><stop stop-opacity="1" stop-color="rgb(96.768188%, 96.768188%, 97.848511%)" offset="0.75"/><stop stop-opacity="1" stop-color="rgb(96.429443%, 96.429443%, 97.56012%)" offset="1"/></linearGradient></defs><path fill="#efeff4" d="M 423.75 288.25 C 382.941406 384.199219 274.238281 437.953125 179.972656 423.453125 C 164.632812 421.09375 122.582031 414.066406 85.351562 380.910156 C 13.675781 317.078125 -1.652344 190.691406 56.164062 101.617188 C 98.246094 36.792969 173.679688 0.0429688 245.355469 1.878906 C 260.792969 2.277344 319.964844 4.71875 371.964844 47.535156 C 379.605469 53.824219 396.449219 68.769531 411.628906 92.476562 C 447.277344 148.152344 450.34375 225.714844 423.75 288.25 " fill-opacity="1" fill-rule="nonzero"/><path fill="#dfe0e6" d="M 280.484375 64.5 C 280.464844 64.5 280.445312 64.5 280.421875 64.5 C 279.589844 64.46875 278.941406 63.765625 278.976562 62.933594 C 279.042969 61.316406 279.042969 59.675781 278.96875 58.050781 C 278.929688 57.230469 279.5625 56.535156 280.378906 56.480469 L 280.410156 56.476562 C 280.433594 56.476562 280.453125 56.476562 280.476562 56.476562 C 281.28125 56.476562 281.949219 57.109375 281.980469 57.917969 C 282.0625 59.628906 282.0625 61.355469 281.996094 63.058594 C 281.960938 63.835938 281.34375 64.453125 280.582031 64.5 C 280.546875 64.5 280.519531 64.5 280.484375 64.5 M 279.554688 51.40625 C 278.84375 51.40625 278.207031 50.898438 278.074219 50.171875 C 277.78125 48.570312 277.414062 46.972656 276.992188 45.410156 C 276.773438 44.609375 277.246094 43.78125 278.050781 43.5625 C 278.183594 43.523438 278.316406 43.507812 278.449219 43.507812 C 279.113281 43.507812 279.722656 43.949219 279.902344 44.621094 C 280.351562 46.261719 280.734375 47.949219 281.042969 49.625 C 281.191406 50.445312 280.648438 51.234375 279.828125 51.382812 C 279.769531 51.390625 279.710938 51.402344 279.652344 51.402344 C 279.621094 51.40625 279.585938 51.40625 279.554688 51.40625 M 275.761719 38.84375 C 275.179688 38.84375 274.621094 38.5 274.375 37.925781 C 273.734375 36.4375 273.023438 34.960938 272.257812 33.53125 C 271.863281 32.796875 272.140625 31.882812 272.875 31.492188 C 273.101562 31.371094 273.34375 31.3125 273.585938 31.3125 C 274.121094 31.3125 274.644531 31.601562 274.917969 32.109375 C 275.722656 33.613281 276.476562 35.171875 277.152344 36.738281 C 277.480469 37.503906 277.125 38.390625 276.359375 38.71875 C 276.191406 38.785156 276.023438 38.828125 275.859375 38.839844 C 275.824219 38.839844 275.792969 38.84375 275.761719 38.84375 M 269.25 27.4375 C 268.785156 27.4375 268.324219 27.222656 268.027344 26.816406 C 267.066406 25.507812 266.046875 24.222656 264.980469 23.003906 C 264.429688 22.375 264.496094 21.421875 265.125 20.878906 C 265.410156 20.628906 265.761719 20.507812 266.117188 20.507812 C 266.535156 20.507812 266.953125 20.683594 267.25 21.019531 C 268.375 22.308594 269.453125 23.660156 270.464844 25.039062 C 270.957031 25.710938 270.8125 26.652344 270.136719 27.144531 C 269.894531 27.320312 269.621094 27.414062 269.34375 27.433594 C 269.308594 27.4375 269.28125 27.4375 269.25 27.4375 M 260.347656 17.765625 C 260 17.765625 259.648438 17.644531 259.359375 17.398438 C 258.136719 16.335938 256.851562 15.3125 255.539062 14.351562 C 254.863281 13.859375 254.722656 12.917969 255.210938 12.246094 C 255.503906 11.84375 255.964844 11.628906 256.429688 11.628906 C 256.738281 11.628906 257.050781 11.722656 257.320312 11.917969 C 258.699219 12.929688 260.054688 14.003906 261.339844 15.125 C 261.972656 15.667969 262.039062 16.621094 261.492188 17.25 C 261.214844 17.566406 260.835938 17.738281 260.445312 17.765625 C 260.414062 17.765625 260.382812 17.765625 260.347656 17.765625 M 249.53125 10.308594 C 249.292969 10.308594 249.050781 10.25 248.820312 10.125 C 247.390625 9.359375 245.914062 8.644531 244.417969 8 C 243.65625 7.671875 243.304688 6.785156 243.636719 6.019531 C 243.878906 5.449219 244.4375 5.109375 245.019531 5.109375 C 245.222656 5.109375 245.421875 5.148438 245.617188 5.234375 C 247.1875 5.910156 248.746094 6.664062 250.25 7.472656 C 250.984375 7.867188 251.261719 8.777344 250.863281 9.511719 C 250.609375 9.988281 250.132812 10.269531 249.632812 10.304688 C 249.597656 10.304688 249.566406 10.308594 249.53125 10.308594 " fill-opacity="1" fill-rule="nonzero"/><path fill="#eaebee" d="M 194.269531 6.9375 C 195.507812 6.304688 196.773438 5.710938 198.050781 5.167969 C 198.242188 5.085938 198.441406 5.046875 198.640625 5.046875 C 199.152344 5.046875 199.644531 5.308594 199.925781 5.757812 C 198.035156 6.125 196.152344 6.515625 194.269531 6.9375 " fill-opacity="1" fill-rule="nonzero"/><path fill="#dfe0e6" d="M 194.117188 10.226562 C 193.578125 10.226562 193.054688 9.933594 192.785156 9.425781 C 192.390625 8.695312 192.667969 7.78125 193.40625 7.386719 C 193.691406 7.238281 193.980469 7.085938 194.269531 6.9375 C 196.152344 6.519531 198.035156 6.125 199.921875 5.757812 C 199.964844 5.824219 199.996094 5.890625 200.027344 5.960938 C 200.355469 6.726562 200 7.613281 199.234375 7.941406 C 197.738281 8.574219 196.257812 9.285156 194.824219 10.046875 C 194.628906 10.152344 194.421875 10.210938 194.214844 10.222656 C 194.179688 10.226562 194.148438 10.226562 194.117188 10.226562 " fill-opacity="1" fill-rule="nonzero"/><path fill="#eaebee" d="M 231.15625 2.023438 C 231.429688 1.574219 231.917969 1.292969 232.453125 1.292969 C 232.542969 1.292969 232.632812 1.304688 232.722656 1.320312 C 233.617188 1.480469 234.511719 1.671875 235.398438 1.875 C 233.988281 1.910156 232.574219 1.957031 231.15625 2.023438 " fill-opacity="1" fill-rule="nonzero"/><path fill="#dfe0e6" d="M 237.339844 5.425781 C 237.207031 5.425781 237.074219 5.40625 236.9375 5.371094 C 235.375 4.945312 233.773438 4.574219 232.179688 4.28125 C 231.355469 4.128906 230.816406 3.34375 230.96875 2.523438 C 231 2.339844 231.066406 2.167969 231.160156 2.019531 C 232.574219 1.957031 233.988281 1.90625 235.402344 1.875 C 236.1875 2.054688 236.96875 2.253906 237.738281 2.464844 C 238.542969 2.6875 239.015625 3.515625 238.792969 4.320312 C 238.617188 4.957031 238.058594 5.382812 237.433594 5.421875 C 237.402344 5.425781 237.371094 5.425781 237.339844 5.425781 " fill-opacity="1" fill-rule="nonzero"/><path fill="#eaebee" d="M 205.148438 4.804688 C 205.03125 4.652344 204.941406 4.476562 204.886719 4.277344 C 204.667969 3.476562 205.144531 2.648438 205.949219 2.429688 C 207.597656 1.984375 209.285156 1.605469 210.96875 1.300781 C 211.0625 1.285156 211.152344 1.273438 211.246094 1.273438 C 211.957031 1.273438 212.589844 1.785156 212.722656 2.515625 C 212.800781 2.949219 212.6875 3.371094 212.4375 3.699219 C 210.003906 4.023438 207.574219 4.394531 205.148438 4.804688 " fill-opacity="1" fill-rule="nonzero"/><path fill="#dfe0e6" d="M 206.339844 5.394531 C 205.875 5.394531 205.429688 5.171875 205.148438 4.804688 C 207.574219 4.394531 210.003906 4.023438 212.4375 3.695312 C 212.21875 3.984375 211.894531 4.195312 211.507812 4.265625 C 209.910156 4.554688 208.300781 4.917969 206.738281 5.339844 C 206.636719 5.367188 206.535156 5.382812 206.4375 5.390625 C 206.402344 5.390625 206.375 5.394531 206.339844 5.394531 " fill-opacity="1" fill-rule="nonzero"/><path fill="#eaebee" d="M 218.3125 2.988281 C 218.03125 2.730469 217.851562 2.363281 217.832031 1.949219 C 217.796875 1.125 218.425781 0.429688 219.242188 0.378906 L 219.273438 0.378906 C 220.125 0.34375 220.980469 0.324219 221.835938 0.324219 C 222.699219 0.324219 223.5625 0.34375 224.417969 0.378906 C 225.25 0.417969 225.898438 1.117188 225.863281 1.949219 C 225.855469 2.082031 225.835938 2.207031 225.796875 2.328125 C 223.304688 2.503906 220.804688 2.722656 218.3125 2.988281 " fill-opacity="1" fill-rule="nonzero"/><path fill="#dfe0e6" d="M 224.351562 3.394531 C 224.332031 3.394531 224.308594 3.394531 224.289062 3.394531 C 223.472656 3.355469 222.648438 3.339844 221.824219 3.339844 C 221.015625 3.339844 220.207031 3.355469 219.402344 3.390625 C 219.378906 3.394531 219.359375 3.394531 219.335938 3.394531 C 218.941406 3.394531 218.582031 3.238281 218.3125 2.988281 C 220.804688 2.726562 223.304688 2.503906 225.796875 2.328125 C 225.617188 2.917969 225.082031 3.347656 224.453125 3.390625 C 224.417969 3.394531 224.382812 3.394531 224.351562 3.394531 " fill-opacity="1" fill-rule="nonzero"/><path fill="#dfe0e6" d="M 185.257812 16.027344 C 184.8125 16.027344 184.371094 15.832031 184.074219 15.457031 C 183.554688 14.804688 183.664062 13.855469 184.316406 13.339844 C 184.960938 12.832031 185.621094 12.328125 186.285156 11.84375 C 186.554688 11.644531 186.867188 11.550781 187.171875 11.550781 C 187.636719 11.550781 188.097656 11.765625 188.394531 12.171875 C 188.886719 12.84375 188.738281 13.785156 188.066406 14.277344 C 187.433594 14.738281 186.804688 15.21875 186.191406 15.699219 C 185.945312 15.898438 185.648438 16.007812 185.351562 16.023438 C 185.320312 16.027344 185.289062 16.027344 185.257812 16.027344 " fill-opacity="1" fill-rule="nonzero"/><path fill="#dfe0e6" d="M 163.253906 56.378906 C 163.207031 56.378906 163.160156 56.378906 163.109375 56.371094 C 162.28125 56.292969 161.671875 55.554688 161.753906 54.726562 C 161.832031 53.914062 161.925781 53.085938 162.039062 52.273438 C 162.144531 51.515625 162.789062 50.96875 163.53125 50.96875 C 163.601562 50.96875 163.671875 50.976562 163.742188 50.984375 C 164.566406 51.097656 165.144531 51.859375 165.03125 52.683594 C 164.921875 53.457031 164.832031 54.242188 164.757812 55.011719 C 164.683594 55.761719 164.078125 56.332031 163.351562 56.375 C 163.320312 56.378906 163.285156 56.378906 163.253906 56.378906 " fill-opacity="1" fill-rule="nonzero"/><path fill="#dfe0e6" d="M 222.527344 120.710938 C 221.707031 120.710938 221.03125 120.050781 221.019531 119.226562 C 221.007812 118.394531 221.671875 117.710938 222.507812 117.699219 C 224.09375 117.675781 225.703125 117.585938 227.3125 117.429688 C 227.363281 117.425781 227.410156 117.421875 227.460938 117.421875 C 228.226562 117.421875 228.882812 118.007812 228.957031 118.78125 C 229.042969 119.609375 228.433594 120.347656 227.605469 120.429688 C 226.90625 120.496094 226.214844 120.550781 225.519531 120.597656 C 224.53125 120.660156 223.53125 120.699219 222.550781 120.710938 C 222.542969 120.710938 222.539062 120.710938 222.527344 120.710938 M 214.523438 120.28125 C 214.460938 120.28125 214.402344 120.273438 214.339844 120.265625 C 212.671875 120.0625 210.992188 119.785156 209.34375 119.4375 C 208.527344 119.265625 208.003906 118.46875 208.175781 117.652344 C 208.328125 116.941406 208.957031 116.457031 209.65625 116.457031 C 209.757812 116.457031 209.863281 116.464844 209.964844 116.488281 C 211.53125 116.816406 213.125 117.082031 214.710938 117.273438 C 215.535156 117.378906 216.121094 118.132812 216.023438 118.957031 C 215.933594 119.6875 215.328125 120.230469 214.621094 120.273438 C 214.585938 120.277344 214.554688 120.28125 214.523438 120.28125 M 235.367188 119.121094 C 234.683594 119.121094 234.066406 118.65625 233.898438 117.960938 C 233.707031 117.152344 234.210938 116.339844 235.019531 116.148438 C 236.578125 115.78125 238.136719 115.339844 239.648438 114.847656 C 239.808594 114.792969 239.964844 114.769531 240.121094 114.769531 C 240.757812 114.769531 241.347656 115.171875 241.558594 115.808594 C 241.8125 116.597656 241.382812 117.449219 240.59375 117.707031 C 238.996094 118.230469 237.355469 118.691406 235.714844 119.082031 C 235.632812 119.101562 235.546875 119.113281 235.460938 119.121094 C 235.429688 119.121094 235.398438 119.121094 235.367188 119.121094 M 201.945312 117.289062 C 201.777344 117.289062 201.605469 117.261719 201.4375 117.199219 C 199.859375 116.632812 198.28125 115.992188 196.75 115.292969 C 195.992188 114.945312 195.65625 114.054688 196.003906 113.296875 C 196.257812 112.742188 196.804688 112.414062 197.375 112.414062 C 197.585938 112.414062 197.800781 112.457031 198.003906 112.554688 C 199.457031 113.21875 200.957031 113.828125 202.457031 114.363281 C 203.242188 114.644531 203.648438 115.507812 203.371094 116.292969 C 203.160156 116.875 202.625 117.25 202.042969 117.285156 C 202.007812 117.289062 201.976562 117.289062 201.945312 117.289062 M 247.554688 114.773438 C 246.996094 114.773438 246.460938 114.464844 246.195312 113.929688 C 245.832031 113.183594 246.140625 112.277344 246.894531 111.914062 C 248.328125 111.214844 249.75 110.445312 251.121094 109.625 C 251.363281 109.480469 251.628906 109.410156 251.894531 109.410156 C 252.40625 109.410156 252.90625 109.671875 253.191406 110.148438 C 253.617188 110.859375 253.382812 111.789062 252.667969 112.214844 C 251.226562 113.074219 249.726562 113.886719 248.214844 114.621094 C 248.03125 114.710938 247.839844 114.757812 247.648438 114.773438 C 247.621094 114.773438 247.585938 114.773438 247.554688 114.773438 M 190.328125 111.613281 C 190.050781 111.613281 189.773438 111.539062 189.523438 111.378906 C 188.101562 110.480469 186.703125 109.511719 185.363281 108.5 C 184.699219 107.996094 184.570312 107.054688 185.074219 106.390625 C 185.367188 105.996094 185.820312 105.789062 186.277344 105.789062 C 186.59375 105.789062 186.914062 105.890625 187.1875 106.097656 C 188.457031 107.058594 189.789062 107.980469 191.140625 108.835938 C 191.84375 109.28125 192.050781 110.210938 191.605469 110.917969 C 191.335938 111.335938 190.890625 111.582031 190.425781 111.613281 C 190.390625 111.613281 190.359375 111.613281 190.328125 111.613281 M 180.226562 103.546875 C 179.839844 103.546875 179.453125 103.402344 179.160156 103.109375 C 178.492188 102.4375 177.832031 101.75 177.191406 101.050781 C 176.824219 99.75 176.449219 98.445312 176.070312 97.144531 C 176.320312 96.988281 176.601562 96.910156 176.878906 96.910156 C 177.308594 96.910156 177.734375 97.089844 178.03125 97.441406 C 179.0625 98.660156 180.160156 99.847656 181.292969 100.972656 C 181.882812 101.5625 181.882812 102.515625 181.292969 103.105469 C 181.023438 103.375 180.675781 103.523438 180.324219 103.542969 C 180.289062 103.546875 180.257812 103.546875 180.226562 103.546875 " fill-opacity="1" fill-rule="nonzero"/><path fill="#dfe0e6" d="M 258.511719 107.832031 C 258.066406 107.832031 257.628906 107.640625 257.332031 107.269531 C 256.8125 106.617188 256.917969 105.667969 257.566406 105.148438 C 258.171875 104.664062 258.78125 104.160156 259.367188 103.644531 C 259.65625 103.394531 260.007812 103.269531 260.359375 103.269531 C 260.78125 103.269531 261.199219 103.445312 261.496094 103.789062 C 262.046875 104.417969 261.980469 105.367188 261.351562 105.914062 C 260.730469 106.457031 260.09375 106.992188 259.453125 107.5 C 259.203125 107.699219 258.90625 107.808594 258.605469 107.828125 C 258.570312 107.832031 258.542969 107.832031 258.511719 107.832031 " fill-opacity="1" fill-rule="nonzero"/><path fill="#b9bcc5" d="M 261.457031 82.152344 C 261.632812 81.90625 261.632812 81.578125 261.457031 81.332031 L 256.488281 74.34375 C 258.015625 70.644531 258.960938 66.671875 259.234375 62.558594 L 266.777344 58.480469 C 267.039062 58.339844 267.183594 58.042969 267.136719 57.746094 L 265.453125 47.601562 C 265.402344 47.304688 265.171875 47.074219 264.871094 47.019531 L 256.414062 45.59375 C 254.828125 41.789062 252.648438 38.335938 250.007812 35.328125 L 252.453125 27.109375 C 252.539062 26.820312 252.429688 26.507812 252.1875 26.335938 L 243.8125 20.351562 C 243.570312 20.175781 243.238281 20.175781 242.996094 20.347656 L 235.996094 25.3125 C 232.289062 23.789062 228.3125 22.84375 224.195312 22.570312 L 220.109375 15.039062 C 219.964844 14.773438 219.671875 14.628906 219.375 14.679688 L 209.21875 16.359375 C 208.917969 16.410156 208.6875 16.644531 208.636719 16.9375 L 207.207031 25.386719 C 203.398438 26.96875 199.9375 29.144531 196.921875 31.785156 L 188.695312 29.34375 C 188.40625 29.257812 188.09375 29.359375 187.917969 29.605469 L 181.929688 37.96875 C 181.753906 38.214844 181.753906 38.542969 181.925781 38.789062 L 186.898438 45.777344 C 185.371094 49.480469 184.421875 53.449219 184.152344 57.5625 L 176.609375 61.640625 C 176.34375 61.78125 176.199219 62.078125 176.246094 62.375 L 177.933594 72.519531 C 177.980469 72.816406 178.214844 73.050781 178.511719 73.097656 L 186.96875 74.527344 C 188.554688 78.332031 190.734375 81.785156 193.378906 84.796875 L 190.929688 93.011719 C 190.84375 93.300781 190.953125 93.609375 191.195312 93.789062 L 199.570312 99.769531 C 199.816406 99.945312 200.144531 99.945312 200.390625 99.769531 L 207.390625 94.808594 C 211.097656 96.332031 215.074219 97.28125 219.1875 97.550781 L 223.273438 105.085938 C 223.417969 105.347656 223.710938 105.492188 224.011719 105.441406 L 234.167969 103.761719 C 234.464844 103.710938 234.695312 103.476562 234.75 103.179688 L 236.179688 94.734375 C 239.988281 93.152344 243.445312 90.972656 246.460938 88.335938 L 254.691406 90.777344 C 254.980469 90.867188 255.289062 90.757812 255.464844 90.515625 L 261.457031 82.152344 " fill-opacity="1" fill-rule="nonzero"/><path fill="#d7d9e0" d="M 216.566406 54.007812 C 214.945312 55.378906 213.960938 57.292969 213.785156 59.402344 C 213.421875 63.757812 216.675781 67.59375 221.035156 67.957031 C 225.394531 68.320312 229.238281 65.070312 229.601562 60.714844 C 229.964844 56.359375 226.710938 52.523438 222.351562 52.164062 C 221.957031 52.128906 221.5625 52.125 221.171875 52.152344 C 219.488281 52.257812 217.878906 52.898438 216.566406 54.007812 Z M 220.832031 70.359375 C 215.148438 69.886719 210.90625 64.882812 211.378906 59.203125 C 211.605469 56.449219 212.894531 53.953125 215.007812 52.171875 C 217.113281 50.386719 219.792969 49.53125 222.550781 49.757812 C 228.234375 50.230469 232.480469 55.234375 232.007812 60.917969 C 231.578125 66.082031 227.390625 70.054688 222.355469 70.375 C 221.855469 70.40625 221.347656 70.402344 220.832031 70.359375 " fill-opacity="1" fill-rule="nonzero"/><path fill="#d7d9e0" d="M 223.089844 85.289062 C 223.953125 85.234375 224.824219 85.136719 225.6875 84.992188 C 225.960938 84.945312 226.234375 84.898438 226.503906 84.84375 C 227.84375 84.578125 229.15625 84.207031 230.425781 83.734375 L 230.480469 83.714844 C 230.527344 83.695312 230.578125 83.675781 230.625 83.660156 C 230.71875 83.621094 230.8125 83.585938 230.910156 83.550781 C 231.160156 83.453125 231.304688 83.203125 231.289062 82.953125 C 231.289062 82.886719 231.273438 82.828125 231.25 82.765625 C 231.128906 82.457031 230.777344 82.308594 230.46875 82.429688 C 228.871094 83.058594 227.199219 83.519531 225.492188 83.800781 C 217.015625 85.207031 208.824219 82.019531 203.46875 76.0625 C 200.488281 72.753906 198.390625 68.585938 197.609375 63.882812 C 197.46875 63.054688 197.378906 62.226562 197.324219 61.402344 C 196.972656 55.859375 198.527344 50.414062 201.808594 45.832031 C 205.578125 40.574219 211.167969 37.09375 217.558594 36.035156 C 230.753906 33.851562 243.253906 42.789062 245.441406 55.957031 C 245.574219 56.769531 245.667969 57.585938 245.71875 58.402344 C 245.941406 61.9375 245.394531 65.484375 244.085938 68.785156 C 244.054688 68.871094 244.042969 68.957031 244.046875 69.042969 C 244.0625 69.269531 244.203125 69.476562 244.429688 69.566406 C 244.738281 69.6875 245.089844 69.539062 245.210938 69.226562 C 246.578125 65.761719 247.160156 62.039062 246.925781 58.324219 C 246.871094 57.46875 246.773438 56.613281 246.632812 55.761719 C 244.335938 41.9375 231.203125 32.554688 217.359375 34.847656 C 210.65625 35.957031 204.785156 39.609375 200.828125 45.132812 C 197.382812 49.9375 195.75 55.65625 196.121094 61.480469 C 196.171875 62.34375 196.273438 63.210938 196.417969 64.078125 C 197.527344 70.773438 201.1875 76.640625 206.714844 80.585938 C 211.527344 84.027344 217.261719 85.65625 223.089844 85.289062 " fill-opacity="1" fill-rule="nonzero"/><path fill="#dfe0e6" d="M 334.433594 100.878906 C 334.367188 100.878906 334.300781 100.875 334.230469 100.859375 C 333.730469 100.742188 333.410156 100.246094 333.527344 99.746094 C 333.691406 99.007812 333.839844 98.261719 333.960938 97.515625 C 334.039062 97.058594 334.429688 96.734375 334.875 96.734375 C 334.925781 96.734375 334.980469 96.738281 335.03125 96.746094 C 335.539062 96.832031 335.882812 97.308594 335.800781 97.816406 C 335.671875 98.597656 335.519531 99.382812 335.34375 100.15625 C 335.253906 100.566406 334.898438 100.851562 334.496094 100.878906 C 334.476562 100.878906 334.453125 100.878906 334.433594 100.878906 " fill-opacity="1" fill-rule="nonzero"/><path fill="#dfe0e6" d="M 335.363281 93.777344 C 335.355469 93.777344 335.34375 93.777344 335.332031 93.777344 C 334.816406 93.757812 334.417969 93.328125 334.4375 92.8125 C 334.488281 91.515625 334.46875 90.199219 334.386719 88.90625 C 334.371094 88.632812 334.351562 88.359375 334.328125 88.085938 C 334.285156 87.574219 334.664062 87.125 335.175781 87.078125 C 335.191406 87.078125 335.203125 87.078125 335.21875 87.078125 C 335.691406 87.078125 336.140625 87.429688 336.1875 87.929688 C 336.207031 88.21875 336.230469 88.503906 336.246094 88.789062 C 336.332031 90.144531 336.351562 91.523438 336.300781 92.882812 C 336.28125 93.367188 335.898438 93.746094 335.429688 93.777344 C 335.40625 93.777344 335.386719 93.777344 335.363281 93.777344 M 334.554688 84.144531 C 334.121094 84.144531 333.734375 83.847656 333.640625 83.40625 C 333.320312 81.867188 332.898438 80.335938 332.390625 78.851562 C 332.222656 78.363281 332.484375 77.835938 332.972656 77.667969 C 333.070312 77.636719 333.171875 77.621094 333.273438 77.621094 C 333.65625 77.621094 334.023438 77.859375 334.152344 78.25 C 334.6875 79.804688 335.128906 81.410156 335.464844 83.023438 C 335.570312 83.53125 335.246094 84.023438 334.746094 84.128906 C 334.703125 84.136719 334.65625 84.144531 334.613281 84.144531 C 334.59375 84.144531 334.574219 84.144531 334.554688 84.144531 M 331.421875 75.003906 C 331.074219 75.003906 330.746094 74.8125 330.582031 74.480469 C 329.894531 73.066406 329.105469 71.683594 328.246094 70.367188 C 327.964844 69.9375 328.089844 69.359375 328.519531 69.082031 C 328.675781 68.976562 328.851562 68.929688 329.027344 68.929688 C 329.335938 68.929688 329.628906 69.078125 329.808594 69.351562 C 330.710938 70.734375 331.535156 72.183594 332.257812 73.664062 C 332.484375 74.125 332.292969 74.683594 331.828125 74.910156 C 331.714844 74.964844 331.597656 74.996094 331.480469 75 C 331.460938 75.003906 331.4375 75.003906 331.421875 75.003906 M 326.132812 66.90625 C 325.871094 66.90625 325.605469 66.796875 325.421875 66.578125 C 324.40625 65.375 323.304688 64.226562 322.148438 63.164062 C 321.769531 62.8125 321.75 62.226562 322.097656 61.847656 C 322.28125 61.648438 322.535156 61.546875 322.785156 61.546875 C 323.007812 61.546875 323.238281 61.628906 323.414062 61.792969 C 324.625 62.910156 325.777344 64.117188 326.84375 65.375 C 327.175781 65.769531 327.128906 66.355469 326.734375 66.6875 C 326.574219 66.820312 326.386719 66.890625 326.191406 66.90625 C 326.171875 66.90625 326.152344 66.90625 326.132812 66.90625 M 319.027344 60.34375 C 318.839844 60.34375 318.648438 60.289062 318.484375 60.171875 C 317.207031 59.253906 315.855469 58.40625 314.476562 57.652344 C 314.027344 57.40625 313.859375 56.839844 314.109375 56.390625 C 314.277344 56.082031 314.597656 55.902344 314.929688 55.902344 C 315.078125 55.902344 315.234375 55.941406 315.375 56.019531 C 316.820312 56.8125 318.230469 57.699219 319.574219 58.660156 C 319.988281 58.960938 320.085938 59.542969 319.785156 59.960938 C 319.617188 60.195312 319.355469 60.328125 319.085938 60.34375 C 319.066406 60.34375 319.046875 60.34375 319.027344 60.34375 M 310.542969 55.707031 C 310.425781 55.707031 310.3125 55.6875 310.195312 55.640625 C 308.738281 55.0625 307.222656 54.570312 305.703125 54.175781 C 305.207031 54.046875 304.910156 53.539062 305.035156 53.039062 C 305.144531 52.621094 305.523438 52.34375 305.941406 52.34375 C 306.019531 52.34375 306.09375 52.355469 306.171875 52.375 C 307.765625 52.785156 309.355469 53.304688 310.886719 53.910156 C 311.363281 54.101562 311.601562 54.640625 311.410156 55.121094 C 311.269531 55.464844 310.949219 55.683594 310.601562 55.707031 C 310.582031 55.707031 310.5625 55.707031 310.542969 55.707031 M 286.730469 54.078125 C 286.3125 54.078125 285.929688 53.792969 285.828125 53.367188 C 285.707031 52.867188 286.011719 52.363281 286.511719 52.242188 C 287.898438 51.90625 289.324219 51.640625 290.75 51.449219 C 290.964844 51.417969 291.179688 51.394531 291.398438 51.367188 C 291.4375 51.359375 291.484375 51.359375 291.527344 51.359375 C 291.980469 51.359375 292.375 51.714844 292.433594 52.183594 C 292.492188 52.695312 292.121094 53.15625 291.613281 53.21875 C 291.40625 53.242188 291.207031 53.265625 291 53.296875 C 289.632812 53.476562 288.273438 53.730469 286.953125 54.050781 C 286.898438 54.066406 286.84375 54.074219 286.792969 54.078125 C 286.769531 54.078125 286.75 54.078125 286.730469 54.078125 M 301.179688 53.28125 C 301.140625 53.28125 301.101562 53.277344 301.058594 53.273438 C 299.503906 53.070312 297.914062 52.960938 296.339844 52.953125 C 295.828125 52.949219 295.414062 52.53125 295.414062 52.015625 C 295.414062 51.503906 295.835938 51.097656 296.351562 51.089844 C 298.003906 51.101562 299.671875 51.214844 301.300781 51.425781 C 301.8125 51.492188 302.171875 51.960938 302.105469 52.472656 C 302.046875 52.921875 301.675781 53.25 301.242188 53.277344 C 301.222656 53.28125 301.203125 53.28125 301.179688 53.28125 " fill-opacity="1" fill-rule="nonzero"/><path fill="#dfe0e6" d="M 296.03125 131.5 C 295.074219 131.5 294.125 131.46875 293.179688 131.402344 C 292.664062 131.363281 292.277344 130.921875 292.316406 130.410156 C 292.351562 129.914062 292.765625 129.542969 293.253906 129.542969 C 293.273438 129.542969 293.292969 129.542969 293.3125 129.542969 C 294.207031 129.609375 295.117188 129.640625 296.023438 129.640625 C 296.671875 129.640625 297.320312 129.625 297.964844 129.589844 C 297.980469 129.589844 297.996094 129.589844 298.011719 129.589844 C 298.507812 129.589844 298.921875 129.976562 298.941406 130.472656 C 298.96875 130.984375 298.578125 131.417969 298.070312 131.449219 L 298.058594 131.453125 C 297.386719 131.484375 296.707031 131.5 296.03125 131.5 M 302.75 130.925781 C 302.308594 130.925781 301.914062 130.605469 301.835938 130.152344 C 301.75 129.644531 302.089844 129.164062 302.59375 129.078125 C 304.121094 128.816406 305.644531 128.457031 307.128906 128.015625 C 307.21875 127.988281 307.308594 127.976562 307.394531 127.976562 C 307.792969 127.976562 308.167969 128.234375 308.289062 128.640625 C 308.4375 129.132812 308.15625 129.652344 307.664062 129.800781 C 306.109375 130.265625 304.511719 130.636719 302.910156 130.914062 C 302.878906 130.917969 302.84375 130.921875 302.8125 130.925781 C 302.789062 130.925781 302.773438 130.925781 302.75 130.925781 M 288.519531 130.777344 C 288.460938 130.777344 288.402344 130.773438 288.339844 130.761719 C 286.746094 130.449219 285.15625 130.035156 283.617188 129.535156 C 283.125 129.375 282.859375 128.847656 283.015625 128.359375 C 283.144531 127.96875 283.511719 127.71875 283.902344 127.71875 C 284 127.71875 284.097656 127.734375 284.191406 127.765625 C 285.660156 128.242188 287.179688 128.636719 288.699219 128.933594 C 289.203125 129.035156 289.53125 129.523438 289.433594 130.027344 C 289.351562 130.449219 288.992188 130.75 288.578125 130.773438 C 288.558594 130.777344 288.539062 130.777344 288.519531 130.777344 M 311.871094 128.195312 C 311.515625 128.195312 311.171875 127.988281 311.023438 127.640625 C 310.8125 127.167969 311.03125 126.621094 311.5 126.414062 C 312.917969 125.792969 314.3125 125.078125 315.640625 124.289062 C 315.789062 124.203125 315.953125 124.160156 316.117188 124.160156 C 316.433594 124.160156 316.742188 124.324219 316.917969 124.613281 C 317.183594 125.058594 317.035156 125.628906 316.59375 125.890625 C 315.195312 126.71875 313.738281 127.46875 312.246094 128.117188 C 312.148438 128.164062 312.039062 128.1875 311.929688 128.195312 C 311.914062 128.195312 311.894531 128.195312 311.871094 128.195312 M 279.46875 127.832031 C 279.335938 127.832031 279.207031 127.804688 279.078125 127.746094 C 277.609375 127.0625 276.167969 126.28125 274.789062 125.421875 C 274.351562 125.152344 274.21875 124.574219 274.492188 124.140625 C 274.667969 123.855469 274.972656 123.703125 275.285156 123.703125 C 275.449219 123.703125 275.621094 123.746094 275.777344 123.84375 C 277.089844 124.660156 278.460938 125.40625 279.867188 126.058594 C 280.332031 126.273438 280.535156 126.832031 280.316406 127.296875 C 280.167969 127.617188 279.859375 127.8125 279.527344 127.832031 C 279.511719 127.832031 279.492188 127.832031 279.46875 127.832031 M 271.394531 122.804688 C 271.191406 122.804688 270.984375 122.738281 270.8125 122.601562 C 269.546875 121.582031 268.332031 120.480469 267.203125 119.320312 C 266.839844 118.949219 266.851562 118.363281 267.21875 118.003906 C 267.398438 117.828125 267.636719 117.738281 267.867188 117.738281 C 268.113281 117.738281 268.355469 117.832031 268.535156 118.019531 C 269.613281 119.125 270.773438 120.179688 271.980469 121.148438 C 272.382812 121.472656 272.445312 122.058594 272.121094 122.460938 C 271.953125 122.671875 271.707031 122.789062 271.453125 122.804688 C 271.433594 122.804688 271.414062 122.804688 271.394531 122.804688 M 264.753906 115.992188 C 264.476562 115.992188 264.195312 115.867188 264.015625 115.625 C 263.027344 114.335938 262.117188 112.972656 261.296875 111.574219 C 261.039062 111.128906 261.1875 110.558594 261.628906 110.300781 C 261.78125 110.214844 261.9375 110.171875 262.101562 110.171875 C 262.421875 110.171875 262.734375 110.335938 262.90625 110.632812 C 263.6875 111.964844 264.558594 113.265625 265.496094 114.496094 C 265.808594 114.90625 265.730469 115.492188 265.320312 115.800781 C 265.167969 115.917969 264.992188 115.980469 264.816406 115.992188 C 264.792969 115.992188 264.777344 115.992188 264.753906 115.992188 " fill-opacity="1" fill-rule="nonzero"/><path fill="#dfe0e6" d="M 320.097656 123.320312 C 319.820312 123.320312 319.546875 123.195312 319.363281 122.960938 C 319.046875 122.550781 319.121094 121.96875 319.527344 121.652344 C 320.128906 121.191406 320.722656 120.703125 321.285156 120.210938 C 321.460938 120.058594 321.679688 119.984375 321.898438 119.984375 C 322.15625 119.984375 322.417969 120.09375 322.601562 120.300781 C 322.9375 120.691406 322.898438 121.277344 322.511719 121.617188 C 321.921875 122.132812 321.300781 122.640625 320.667969 123.128906 C 320.515625 123.246094 320.335938 123.308594 320.15625 123.320312 C 320.140625 123.320312 320.117188 123.320312 320.097656 123.320312 " fill-opacity="1" fill-rule="nonzero"/><path fill="#b9bcc5" d="M 322.632812 105.773438 C 322.75 105.609375 322.75 105.390625 322.632812 105.226562 L 319.304688 100.546875 C 320.324219 98.074219 320.960938 95.417969 321.140625 92.664062 L 326.191406 89.933594 C 326.367188 89.839844 326.464844 89.644531 326.429688 89.445312 L 325.304688 82.652344 C 325.269531 82.457031 325.117188 82.300781 324.917969 82.269531 L 319.257812 81.3125 C 318.195312 78.761719 316.734375 76.453125 314.96875 74.4375 L 316.605469 68.941406 C 316.664062 68.75 316.589844 68.539062 316.425781 68.421875 L 310.824219 64.417969 C 310.660156 64.300781 310.441406 64.300781 310.273438 64.417969 L 305.59375 67.742188 C 303.113281 66.722656 300.449219 66.085938 297.699219 65.90625 L 294.964844 60.867188 C 294.867188 60.691406 294.667969 60.589844 294.46875 60.625 L 287.671875 61.75 C 287.476562 61.78125 287.320312 61.9375 287.285156 62.136719 L 286.324219 67.789062 C 283.777344 68.847656 281.464844 70.304688 279.445312 72.070312 L 273.941406 70.4375 C 273.746094 70.382812 273.539062 70.449219 273.417969 70.613281 L 269.414062 76.210938 C 269.296875 76.375 269.296875 76.59375 269.414062 76.757812 L 272.738281 81.433594 C 271.714844 83.910156 271.082031 86.570312 270.898438 89.320312 L 265.851562 92.046875 C 265.675781 92.144531 265.582031 92.34375 265.613281 92.539062 L 266.738281 99.328125 C 266.773438 99.527344 266.929688 99.683594 267.125 99.714844 L 272.785156 100.675781 C 273.847656 103.21875 275.308594 105.527344 277.074219 107.542969 L 275.4375 113.042969 C 275.378906 113.234375 275.449219 113.441406 275.613281 113.558594 L 281.21875 117.5625 C 281.382812 117.679688 281.601562 117.679688 281.765625 117.566406 L 286.449219 114.242188 C 288.929688 115.261719 291.589844 115.898438 294.34375 116.078125 L 297.082031 121.117188 C 297.175781 121.296875 297.375 121.390625 297.570312 121.359375 L 304.371094 120.234375 C 304.570312 120.199219 304.722656 120.042969 304.757812 119.847656 L 305.714844 114.195312 C 308.265625 113.136719 310.578125 111.675781 312.597656 109.910156 L 318.101562 111.546875 C 318.292969 111.605469 318.503906 111.535156 318.621094 111.371094 L 322.632812 105.773438 " fill-opacity="1" fill-rule="nonzero"/><path fill="#d7d9e0" d="M 290.851562 90.5625 C 290.738281 91.941406 291.167969 93.28125 292.0625 94.339844 C 292.957031 95.390625 294.210938 96.039062 295.589844 96.152344 C 296.972656 96.265625 298.316406 95.835938 299.371094 94.945312 C 300.429688 94.050781 301.074219 92.800781 301.191406 91.421875 C 301.425781 88.574219 299.300781 86.066406 296.453125 85.828125 C 296.195312 85.808594 295.9375 85.804688 295.691406 85.820312 C 293.167969 85.980469 291.070312 87.972656 290.851562 90.5625 Z M 295.4375 98.007812 C 293.558594 97.851562 291.855469 96.976562 290.640625 95.539062 C 289.421875 94.105469 288.839844 92.28125 288.996094 90.410156 C 289.316406 86.539062 292.722656 83.660156 296.605469 83.972656 C 300.480469 84.296875 303.367188 87.707031 303.046875 91.574219 C 302.890625 93.449219 302.011719 95.148438 300.578125 96.367188 C 299.410156 97.351562 297.984375 97.921875 296.484375 98.019531 C 296.136719 98.039062 295.789062 98.035156 295.4375 98.007812 " fill-opacity="1" fill-rule="nonzero"/><path fill="#d7d9e0" d="M 297.011719 108.398438 C 297.597656 108.359375 298.191406 108.289062 298.785156 108.191406 C 299.960938 107.996094 301.125 107.683594 302.234375 107.257812 C 302.285156 107.238281 302.332031 107.21875 302.386719 107.195312 C 302.769531 107.046875 303 106.664062 302.972656 106.273438 C 302.96875 106.179688 302.949219 106.082031 302.910156 105.988281 C 302.71875 105.511719 302.175781 105.28125 301.699219 105.46875 C 300.664062 105.875 299.582031 106.175781 298.480469 106.355469 C 298.417969 106.367188 298.355469 106.378906 298.296875 106.386719 C 295.683594 106.792969 293.070312 106.535156 290.644531 105.667969 C 289.328125 105.199219 288.066406 104.546875 286.894531 103.722656 L 286.863281 103.703125 C 286.835938 103.683594 286.804688 103.664062 286.78125 103.640625 C 283.367188 101.207031 281.117188 97.589844 280.425781 93.460938 C 280.339844 92.925781 280.277344 92.390625 280.246094 91.859375 C 280.015625 88.269531 281.023438 84.738281 283.148438 81.777344 C 285.585938 78.371094 289.207031 76.121094 293.339844 75.433594 C 297.476562 74.753906 301.636719 75.714844 305.039062 78.148438 C 308.453125 80.585938 310.707031 84.203125 311.394531 88.332031 C 311.480469 88.855469 311.539062 89.386719 311.574219 89.914062 C 311.71875 92.203125 311.359375 94.5 310.519531 96.632812 C 310.46875 96.765625 310.445312 96.902344 310.453125 97.03125 C 310.476562 97.382812 310.695312 97.703125 311.042969 97.84375 C 311.519531 98.03125 312.0625 97.792969 312.253906 97.316406 C 313.195312 94.925781 313.597656 92.359375 313.433594 89.800781 C 313.398438 89.207031 313.332031 88.613281 313.234375 88.027344 C 312.464844 83.40625 309.945312 79.363281 306.125 76.632812 C 302.3125 73.914062 297.667969 72.828125 293.035156 73.597656 C 288.410156 74.363281 284.359375 76.882812 281.632812 80.691406 C 279.253906 84.011719 278.128906 87.957031 278.382812 91.972656 C 278.421875 92.570312 278.488281 93.164062 278.585938 93.761719 C 280.074219 102.710938 288.136719 108.960938 297.011719 108.398438 " fill-opacity="1" fill-rule="nonzero"/><path fill="#b9bcc5" d="M 438.28125 197.238281 C 438.257812 195.890625 437.695312 194.609375 436.714844 193.679688 C 435.738281 192.75 434.429688 192.25 433.082031 192.292969 L 323.917969 195.777344 C 321.140625 195.863281 318.957031 198.183594 319.039062 200.957031 L 324.429688 381.492188 C 324.507812 384.234375 326.769531 386.40625 329.515625 386.378906 L 436.484375 385.339844 C 437.824219 385.328125 439.105469 384.777344 440.046875 383.816406 C 440.984375 382.855469 441.496094 381.5625 441.472656 380.21875 L 438.28125 197.238281 " fill-opacity="1" fill-rule="nonzero"/><path fill="#d7d9de" d="M 427.304688 217.886719 L 373.242188 217.847656 L 372.972656 206.066406 L 426.894531 206.066406 C 427.859375 206.066406 428.660156 206.585938 428.691406 207.488281 L 428.988281 215.9375 C 429.019531 216.84375 428.273438 217.886719 427.304688 217.886719 " fill-opacity="1" fill-rule="nonzero"/><path fill="#d7d9de" d="M 427.949219 236.675781 C 427.945312 236.675781 427.945312 236.675781 427.945312 236.675781 L 373.671875 236.527344 L 373.390625 224.238281 L 427.527344 224.332031 C 428.496094 224.332031 429.308594 225.25 429.339844 226.160156 L 429.636719 234.898438 C 429.667969 235.8125 428.917969 236.675781 427.949219 236.675781 " fill-opacity="1" fill-rule="nonzero"/><path fill="#d7d9de" d="M 428.589844 255.652344 C 428.589844 255.652344 428.585938 255.652344 428.582031 255.652344 L 374.097656 255.410156 L 373.832031 243.671875 L 428.183594 243.855469 C 429.15625 243.859375 429.957031 244.308594 429.988281 245.226562 L 430.292969 254.042969 C 430.320312 254.964844 429.5625 255.652344 428.589844 255.652344 " fill-opacity="1" fill-rule="nonzero"/><path fill="#d7d9de" d="M 429.242188 274.800781 C 429.242188 274.800781 429.230469 274.800781 429.226562 274.800781 L 374.53125 274.464844 L 374.261719 262.621094 L 428.824219 262.894531 C 429.800781 262.902344 430.613281 263.535156 430.644531 264.464844 L 430.949219 273.359375 C 430.980469 274.285156 430.214844 274.800781 429.242188 274.800781 " fill-opacity="1" fill-rule="nonzero"/><path fill="#d7d9de" d="M 429.914062 294.78125 C 429.910156 294.78125 429.90625 294.78125 429.902344 294.78125 L 374.984375 294.347656 L 374.699219 281.734375 L 429.476562 282.105469 C 430.453125 282.113281 431.273438 282.933594 431.308594 283.871094 L 431.617188 292.84375 C 431.644531 293.78125 430.890625 294.78125 429.914062 294.78125 " fill-opacity="1" fill-rule="nonzero"/><path fill="#d7d9de" d="M 430.574219 314.273438 C 430.570312 314.273438 430.5625 314.273438 430.558594 314.273438 L 375.429688 313.742188 L 375.136719 301.015625 L 430.128906 301.484375 C 431.113281 301.492188 431.941406 302.503906 431.976562 303.449219 L 432.285156 312.503906 C 432.316406 313.445312 431.554688 314.273438 430.574219 314.273438 " fill-opacity="1" fill-rule="nonzero"/><path fill="#d7d9de" d="M 431.25 333.933594 C 431.238281 333.933594 431.230469 333.933594 431.222656 333.933594 L 375.875 333.304688 L 375.597656 321.140625 L 430.808594 321.710938 C 431.800781 321.71875 432.617188 322.25 432.652344 323.203125 L 432.964844 332.339844 C 432.996094 333.285156 432.226562 333.933594 431.25 333.933594 " fill-opacity="1" fill-rule="nonzero"/><path fill="#d7d9de" d="M 431.9375 353.773438 C 431.921875 353.773438 431.910156 353.773438 431.894531 353.773438 L 376.328125 353.042969 L 376.046875 340.769531 L 431.476562 341.441406 C 432.472656 341.453125 433.300781 342.171875 433.332031 343.136719 L 433.644531 352.355469 C 433.679688 353.304688 432.910156 353.773438 431.9375 353.773438 " fill-opacity="1" fill-rule="nonzero"/><path fill="#d7d9de" d="M 432.613281 374.484375 C 432.609375 374.484375 432.597656 374.484375 432.589844 374.484375 L 376.792969 373.648438 L 376.496094 360.574219 L 432.148438 361.34375 C 433.144531 361.359375 433.984375 362.277344 434.019531 363.246094 L 434.332031 372.550781 C 434.371094 373.515625 433.601562 374.484375 432.613281 374.484375 " fill-opacity="1" fill-rule="nonzero"/><path fill="#d7d9e0" d="M 192.894531 382.808594 C 192.894531 382.808594 228.960938 161.800781 136.621094 3.445312 C 135.414062 1.378906 132.484375 1.230469 131.097656 3.179688 C 109.1875 33.925781 -20.664062 233.953125 192.894531 382.808594 " fill-opacity="1" fill-rule="nonzero"/><path fill="#ecedf0" d="M 183.421875 361.546875 C 182.980469 360.796875 182.515625 360.007812 182.023438 359.175781 C 181.464844 358.257812 180.945312 357.253906 180.382812 356.207031 C 179.824219 355.164062 179.234375 354.066406 178.625 352.925781 C 177.402344 350.640625 176.082031 348.171875 174.667969 345.53125 C 173.355469 342.84375 171.957031 339.984375 170.480469 336.964844 C 169.75 335.453125 169 333.902344 168.230469 332.316406 C 167.519531 330.703125 166.792969 329.054688 166.050781 327.367188 C 165.308594 325.679688 164.550781 323.957031 163.78125 322.203125 C 163.394531 321.328125 163.003906 320.441406 162.613281 319.546875 C 162.234375 318.648438 161.878906 317.730469 161.507812 316.808594 C 160.046875 313.117188 158.480469 309.316406 156.96875 305.375 C 155.53125 301.40625 154.050781 297.328125 152.542969 293.15625 C 151.167969 288.941406 149.765625 284.636719 148.339844 280.257812 C 147.417969 277.109375 146.484375 273.925781 145.542969 270.710938 C 142.675781 256.445312 139.246094 241.777344 135.144531 227.117188 L 134.613281 224.222656 C 134.179688 221.804688 133.742188 219.390625 133.304688 216.972656 C 132.875 214.554688 132.53125 212.128906 132.140625 209.714844 C 131.773438 207.296875 131.359375 204.890625 131.035156 202.476562 C 130.707031 200.066406 130.382812 197.660156 130.058594 195.265625 C 129.898438 194.066406 129.738281 192.871094 129.578125 191.679688 C 129.441406 190.480469 129.304688 189.289062 129.167969 188.101562 C 128.898438 185.722656 128.625 183.351562 128.355469 181 C 128.101562 178.644531 127.902344 176.296875 127.675781 173.972656 C 127.464844 171.640625 127.207031 169.332031 127.050781 167.035156 C 126.710938 162.449219 126.3125 157.9375 126.105469 153.507812 C 125.984375 151.296875 125.847656 149.113281 125.75 146.949219 C 125.664062 144.785156 125.582031 142.648438 125.5 140.539062 C 125.460938 139.488281 125.421875 138.441406 125.382812 137.398438 C 125.355469 136.359375 125.332031 135.328125 125.308594 134.300781 C 125.261719 132.253906 125.214844 130.238281 125.167969 128.253906 C 125.152344 126.269531 125.136719 124.316406 125.121094 122.402344 C 125.097656 120.484375 125.089844 118.605469 125.109375 116.765625 C 125.105469 109.40625 125.320312 102.65625 125.546875 96.679688 C 125.816406 90.699219 126.101562 85.496094 126.429688 81.210938 C 126.734375 76.925781 127.066406 73.570312 127.300781 71.28125 C 127.535156 68.988281 127.695312 67.769531 127.695312 67.769531 L 127.695312 67.765625 C 127.71875 67.601562 127.859375 67.476562 128.027344 67.476562 C 128.039062 67.476562 128.054688 67.476562 128.070312 67.480469 C 128.25 67.503906 128.375 67.667969 128.359375 67.847656 C 128.359375 67.847656 128.226562 69.058594 128.039062 71.351562 C 127.847656 73.636719 127.605469 76.996094 127.363281 81.273438 C 127.105469 85.550781 126.902344 90.75 126.730469 96.71875 C 126.679688 99.703125 126.582031 102.878906 126.578125 106.226562 C 126.5625 107.898438 126.550781 109.617188 126.535156 111.375 C 126.542969 113.128906 126.550781 114.929688 126.554688 116.761719 C 126.550781 118.601562 126.578125 120.476562 126.621094 122.386719 C 126.65625 124.296875 126.691406 126.242188 126.726562 128.21875 C 126.789062 130.199219 126.855469 132.210938 126.925781 134.253906 C 126.957031 135.277344 126.992188 136.304688 127.027344 137.34375 C 127.078125 138.378906 127.125 139.421875 127.175781 140.472656 C 127.277344 142.574219 127.382812 144.703125 127.488281 146.859375 C 127.605469 149.015625 127.765625 151.195312 127.90625 153.398438 C 128.160156 157.808594 128.546875 162.308594 128.90625 166.882812 C 129.070312 169.171875 129.335938 171.472656 129.550781 173.789062 C 129.785156 176.109375 129.992188 178.449219 130.253906 180.796875 C 130.53125 183.140625 130.808594 185.5 131.089844 187.871094 C 131.226562 189.054688 131.367188 190.242188 131.507812 191.4375 C 131.671875 192.625 131.835938 193.816406 132 195.007812 C 132.328125 197.398438 132.660156 199.792969 132.992188 202.195312 C 133.324219 204.597656 133.746094 206.992188 134.121094 209.402344 C 134.515625 211.804688 134.867188 214.226562 135.300781 216.628906 C 135.738281 219.035156 136.179688 221.445312 136.617188 223.851562 L 137.269531 227.464844 C 137.488281 228.664062 137.75 229.859375 137.992188 231.058594 C 138.480469 233.453125 138.96875 235.847656 139.457031 238.234375 C 139.921875 240.628906 140.5 242.992188 141.039062 245.355469 C 141.585938 247.71875 142.128906 250.074219 142.671875 252.421875 C 143.824219 257.101562 145.058594 261.71875 146.230469 266.289062 C 147.542969 270.828125 148.839844 275.304688 150.113281 279.714844 C 151.511719 284.082031 152.886719 288.378906 154.230469 292.585938 C 155.695312 296.75 157.128906 300.828125 158.523438 304.796875 C 159.996094 308.734375 161.515625 312.535156 162.9375 316.230469 C 163.300781 317.148438 163.644531 318.070312 164.011719 318.96875 C 164.394531 319.863281 164.773438 320.75 165.152344 321.628906 C 165.902344 323.382812 166.640625 325.101562 167.363281 326.792969 C 168.089844 328.480469 168.796875 330.128906 169.488281 331.746094 C 170.234375 333.335938 170.964844 334.890625 171.675781 336.402344 C 173.097656 339.433594 174.449219 342.308594 175.71875 345.007812 C 177.085938 347.660156 178.363281 350.144531 179.546875 352.4375 C 180.140625 353.585938 180.703125 354.6875 181.246094 355.738281 C 181.792969 356.792969 182.296875 357.804688 182.839844 358.726562 C 183.023438 359.050781 183.199219 359.367188 183.378906 359.679688 L 183.421875 361.546875 " fill-opacity="1" fill-rule="nonzero"/><path fill="#c6c9d3" d="M 160.207031 404.414062 C 160.207031 404.414062 159.410156 146.503906 37.527344 70.621094 C 35.367188 69.273438 32.507812 70.304688 31.695312 72.714844 C 22.207031 100.773438 -18.203125 253.105469 160.207031 404.414062 " fill-opacity="1" fill-rule="nonzero"/><path fill="#f7f7fa" d="M 159.972656 394.207031 C 159.957031 393.8125 159.945312 393.402344 159.929688 392.984375 C 160.167969 393.414062 160.289062 393.640625 160.289062 393.640625 L 160.292969 393.644531 C 160.394531 393.828125 160.324219 394.0625 160.140625 394.164062 C 160.085938 394.191406 160.03125 394.207031 159.972656 394.207031 " fill-opacity="1" fill-rule="nonzero"/><path fill="#e4e5ea" d="M 159.957031 394.207031 C 159.828125 394.207031 159.703125 394.144531 159.628906 394.027344 C 159.628906 394.027344 159.019531 393.023438 157.871094 391.140625 C 156.730469 389.25 155.0625 386.484375 152.9375 382.957031 C 151.859375 381.203125 150.75 379.210938 149.515625 377.0625 C 148.285156 374.90625 146.957031 372.578125 145.535156 370.085938 C 142.746094 365.078125 139.609375 359.417969 136.347656 353.160156 C 134.714844 350.03125 133.019531 346.773438 131.261719 343.398438 C 130.40625 341.699219 129.539062 339.972656 128.652344 338.214844 C 127.78125 336.457031 126.894531 334.671875 126 332.859375 C 122.476562 325.582031 118.757812 317.90625 115.140625 309.863281 C 111.496094 301.832031 107.839844 293.484375 104.246094 284.949219 C 102.410156 280.703125 100.695312 276.359375 98.878906 272.042969 C 97.089844 267.714844 95.367188 263.339844 93.605469 258.980469 C 91.894531 254.601562 90.183594 250.222656 88.480469 245.859375 C 87.644531 243.671875 86.8125 241.484375 85.984375 239.308594 C 85.566406 238.222656 85.152344 237.132812 84.738281 236.050781 C 84.335938 234.960938 83.933594 233.875 83.53125 232.789062 C 81.921875 228.449219 80.324219 224.144531 78.804688 219.871094 C 77.257812 215.609375 75.785156 211.375 74.332031 207.214844 C 72.875 203.058594 71.511719 198.941406 70.136719 194.929688 C 68.816406 190.898438 67.488281 186.96875 66.261719 183.117188 C 63.765625 175.433594 61.519531 168.132812 59.46875 161.386719 C 57.453125 154.628906 55.628906 148.429688 54.074219 142.914062 C 52.511719 137.402344 51.199219 132.582031 50.148438 128.605469 C 48.042969 120.652344 46.976562 116.070312 46.976562 116.070312 C 46.925781 115.863281 47.054688 115.660156 47.261719 115.609375 C 47.289062 115.601562 47.316406 115.601562 47.347656 115.601562 C 47.519531 115.601562 47.679688 115.71875 47.71875 115.894531 C 47.71875 115.894531 48.78125 120.464844 50.882812 128.414062 C 51.929688 132.386719 53.238281 137.203125 54.796875 142.710938 C 56.339844 148.226562 58.175781 154.417969 60.21875 161.160156 C 62.289062 167.894531 64.558594 175.183594 67.078125 182.851562 C 68.316406 186.695312 69.660156 190.617188 70.992188 194.640625 C 72.378906 198.648438 73.753906 202.753906 75.226562 206.902344 C 76.691406 211.058594 78.175781 215.28125 79.738281 219.535156 C 81.269531 223.804688 82.878906 228.097656 84.503906 232.425781 C 84.910156 233.511719 85.3125 234.597656 85.722656 235.683594 C 86.136719 236.765625 86.554688 237.847656 86.972656 238.933594 C 87.808594 241.109375 88.648438 243.285156 89.492188 245.46875 C 91.191406 249.828125 92.941406 254.1875 94.699219 258.542969 C 96.503906 262.878906 98.265625 267.234375 100.09375 271.539062 C 101.015625 273.691406 101.933594 275.835938 102.847656 277.976562 C 103.308594 279.042969 103.765625 280.113281 104.222656 281.179688 C 104.695312 282.238281 105.160156 283.300781 105.628906 284.359375 C 107.515625 288.578125 109.332031 292.789062 111.238281 296.898438 C 113.132812 301.015625 114.949219 305.105469 116.851562 309.074219 C 117.792969 311.066406 118.722656 313.039062 119.644531 314.996094 C 120.101562 315.976562 120.554688 316.949219 121.007812 317.921875 C 121.472656 318.882812 121.9375 319.84375 122.398438 320.796875 C 124.246094 324.605469 126.015625 328.359375 127.816406 331.96875 C 128.71875 333.773438 129.605469 335.554688 130.484375 337.304688 C 131.351562 339.0625 132.203125 340.796875 133.039062 342.5 C 134.765625 345.878906 136.433594 349.148438 138.03125 352.285156 C 139.613281 355.433594 141.21875 358.402344 142.714844 361.242188 C 144.214844 364.078125 145.59375 366.792969 146.957031 369.308594 C 149.6875 374.339844 152.066406 378.726562 154.027344 382.335938 C 156.023438 385.929688 157.59375 388.75 158.664062 390.675781 C 159.230469 391.710938 159.65625 392.484375 159.929688 392.984375 C 159.945312 393.402344 159.957031 393.8125 159.972656 394.207031 C 159.96875 394.207031 159.960938 394.207031 159.957031 394.207031 " fill-opacity="1" fill-rule="nonzero"/><path fill="#a8abb2" d="M 371.566406 144.222656 C 371.539062 143.0625 371.035156 141.96875 370.167969 141.195312 C 369.304688 140.421875 368.15625 140.039062 367.003906 140.140625 L 250.238281 150.238281 C 248.066406 150.425781 246.332031 152.242188 246.332031 154.417969 L 246.332031 388.816406 C 246.332031 391.132812 248.347656 392.835938 250.667969 392.835938 L 372.941406 392.835938 C 374.070312 392.835938 375.152344 392.46875 375.945312 391.664062 C 376.734375 390.851562 377.164062 389.808594 377.136719 388.675781 L 371.566406 144.222656 " fill-opacity="1" fill-rule="nonzero"/><path fill="#b8bbc2" d="M 259.070312 189.136719 L 259.070312 164.417969 C 259.070312 163.367188 259.570312 162.46875 260.546875 162.402344 L 269.460938 161.800781 C 269.492188 161.796875 269.523438 161.796875 269.558594 161.796875 C 270.496094 161.796875 271.25 162.671875 271.25 163.6875 L 271.265625 188.648438 L 259.070312 189.136719 " fill-opacity="1" fill-rule="nonzero"/><path fill="#b3b6bd" d="M 291.429688 380.566406 L 282.753906 380.566406 L 280.144531 192.957031 C 280.140625 192.414062 280.035156 191.882812 279.84375 191.386719 L 279.8125 163.03125 C 279.8125 161.976562 280.765625 161.058594 281.757812 160.996094 L 291.078125 160.386719 C 291.113281 160.382812 291.144531 160.382812 291.179688 160.382812 C 292.117188 160.382812 292.738281 161.269531 292.742188 162.292969 L 293.101562 378.410156 C 293.101562 379.488281 292.433594 380.566406 291.429688 380.566406 " fill-opacity="1" fill-rule="nonzero"/><path fill="#b8bbc2" d="M 313.570312 380.566406 L 304.023438 380.566406 C 303.007812 380.566406 302.421875 379.488281 302.417969 378.402344 L 301.957031 161.59375 C 301.957031 160.53125 302.535156 159.632812 303.539062 159.570312 L 312.980469 158.949219 C 313.015625 158.949219 313.050781 158.949219 313.089844 158.949219 C 314.0625 158.949219 315.054688 159.816406 315.058594 160.84375 L 315.65625 378.394531 C 315.660156 379.484375 314.585938 380.566406 313.570312 380.566406 " fill-opacity="1" fill-rule="nonzero"/><path fill="#b8bbc2" d="M 336.003906 380.570312 L 326.328125 380.570312 C 325.300781 380.570312 324.542969 379.480469 324.542969 378.390625 L 323.847656 160.175781 C 323.84375 159.105469 324.585938 158.191406 325.601562 158.125 L 335.167969 157.496094 C 335.207031 157.496094 335.242188 157.496094 335.277344 157.496094 C 336.253906 157.496094 337.113281 158.378906 337.121094 159.414062 L 337.957031 378.382812 C 337.960938 379.476562 337.035156 380.570312 336.003906 380.570312 " fill-opacity="1" fill-rule="nonzero"/><path fill="#b8bbc2" d="M 358.742188 380.566406 L 348.933594 380.566406 C 347.894531 380.566406 346.96875 379.476562 346.960938 378.378906 L 346.027344 158.734375 C 346.019531 157.65625 346.929688 156.726562 347.960938 156.660156 L 357.65625 156.027344 C 357.691406 156.023438 357.730469 156.019531 357.761719 156.019531 C 358.742188 156.019531 359.46875 156.917969 359.472656 157.964844 L 360.554688 378.371094 C 360.5625 379.472656 359.785156 380.566406 358.742188 380.566406 " fill-opacity="1" fill-rule="nonzero"/><path fill="#c6c9d3" d="M 280.144531 192.957031 C 280.128906 191.730469 279.617188 190.5625 278.726562 189.722656 C 277.835938 188.878906 276.640625 188.429688 275.417969 188.480469 L 182.277344 192.210938 C 180.683594 192.273438 179.429688 193.605469 179.46875 195.203125 L 184.195312 394.03125 L 278.371094 392.886719 C 279.578125 392.871094 280.726562 392.375 281.570312 391.511719 C 282.414062 390.648438 282.878906 389.484375 282.859375 388.28125 L 280.144531 192.957031 " fill-opacity="1" fill-rule="nonzero"/><path fill="#e3e4e9" d="M 190.148438 229.605469 L 189.972656 204.023438 L 204.992188 204.023438 L 205.136719 229.601562 L 190.148438 229.605469 " fill-opacity="1" fill-rule="nonzero"/><path fill="#e3e4e9" d="M 211.71875 229.558594 L 211.589844 204.023438 L 226.550781 204.023438 L 226.652344 229.554688 L 211.71875 229.558594 " fill-opacity="1" fill-rule="nonzero"/><path fill="#e3e4e9" d="M 234.402344 229.507812 L 234.320312 204.023438 L 249.222656 204.023438 L 249.273438 229.503906 L 234.402344 229.507812 " fill-opacity="1" fill-rule="nonzero"/><path fill="#e3e4e9" d="M 271.84375 229.511719 L 256.710938 229.488281 L 256.367188 204.023438 L 271.84375 204.023438 L 271.84375 229.511719 " fill-opacity="1" fill-rule="nonzero"/><path fill="#e3e4e9" d="M 190.398438 266 L 190.226562 240.609375 L 205.199219 240.5625 L 205.34375 265.921875 L 190.398438 266 " fill-opacity="1" fill-rule="nonzero"/><path fill="#e3e4e9" d="M 211.902344 265.886719 L 211.777344 240.539062 L 226.691406 240.496094 L 226.789062 265.808594 L 211.902344 265.886719 " fill-opacity="1" fill-rule="nonzero"/><path fill="#e3e4e9" d="M 234.511719 265.765625 L 234.433594 240.46875 L 249.292969 240.421875 L 249.339844 265.6875 L 234.511719 265.765625 " fill-opacity="1" fill-rule="nonzero"/><path fill="#e3e4e9" d="M 256.757812 265.644531 L 256.882812 240.398438 L 271.84375 240.351562 L 271.84375 265.566406 L 256.757812 265.644531 " fill-opacity="1" fill-rule="nonzero"/><path fill="#e3e4e9" d="M 190.660156 303.28125 L 190.484375 278.050781 L 205.410156 277.957031 L 205.550781 303.15625 L 190.660156 303.28125 " fill-opacity="1" fill-rule="nonzero"/><path fill="#e3e4e9" d="M 212.09375 303.097656 L 211.964844 277.914062 L 226.835938 277.820312 L 226.929688 302.972656 L 212.09375 303.097656 " fill-opacity="1" fill-rule="nonzero"/><path fill="#e3e4e9" d="M 234.632812 302.902344 L 234.550781 277.769531 L 249.363281 277.675781 L 249.410156 302.777344 L 234.632812 302.902344 " fill-opacity="1" fill-rule="nonzero"/><path fill="#e3e4e9" d="M 256.804688 302.71875 L 256.929688 277.632812 L 271.84375 277.535156 L 271.84375 302.59375 L 256.804688 302.71875 " fill-opacity="1" fill-rule="nonzero"/><path fill="#e3e4e9" d="M 190.914062 339.730469 L 190.742188 315.257812 L 205.621094 315.113281 L 205.757812 339.558594 L 190.914062 339.730469 " fill-opacity="1" fill-rule="nonzero"/><path fill="#e3e4e9" d="M 212.277344 339.480469 L 212.152344 315.050781 L 226.976562 314.910156 L 227.070312 339.304688 L 212.277344 339.480469 " fill-opacity="1" fill-rule="nonzero"/><path fill="#e3e4e9" d="M 234.746094 339.21875 L 234.667969 314.835938 L 249.433594 314.695312 L 249.476562 339.042969 L 234.746094 339.21875 " fill-opacity="1" fill-rule="nonzero"/><path fill="#e3e4e9" d="M 256.851562 338.960938 L 256.976562 314.628906 L 271.84375 314.484375 L 271.84375 338.789062 L 256.851562 338.960938 " fill-opacity="1" fill-rule="nonzero"/><path fill="#e3e4e9" d="M 191.167969 376.542969 L 190.996094 352.226562 L 205.828125 352.035156 L 205.964844 376.324219 L 191.167969 376.542969 " fill-opacity="1" fill-rule="nonzero"/><path fill="#e3e4e9" d="M 212.464844 376.226562 L 212.339844 351.953125 L 227.117188 351.761719 L 227.210938 376.007812 L 212.464844 376.226562 " fill-opacity="1" fill-rule="nonzero"/><path fill="#e3e4e9" d="M 234.859375 375.890625 L 234.785156 351.667969 L 249.5 351.476562 L 249.546875 375.675781 L 234.859375 375.890625 " fill-opacity="1" fill-rule="nonzero"/><path fill="#e3e4e9" d="M 256.898438 375.570312 L 257.023438 351.386719 L 271.84375 351.199219 L 271.84375 375.351562 L 256.898438 375.570312 " fill-opacity="1" fill-rule="nonzero"/><path fill="#e5b731" d="M 197.046875 279.382812 L 71.96875 279.382812 C 65.855469 279.382812 60.898438 274.433594 60.898438 268.328125 L 60.898438 186.859375 C 60.898438 180.753906 65.855469 175.804688 71.96875 175.804688 L 197.046875 175.804688 C 203.160156 175.804688 208.117188 180.753906 208.117188 186.859375 L 208.117188 268.328125 C 208.117188 274.433594 203.160156 279.382812 197.046875 279.382812 " fill-opacity="1" fill-rule="nonzero"/><path fill="#f3d33f" d="M 202.765625 279.382812 L 77.691406 279.382812 C 71.578125 279.382812 66.621094 274.433594 66.621094 268.328125 L 66.621094 186.859375 C 66.621094 180.753906 71.578125 175.804688 77.691406 175.804688 L 202.765625 175.804688 C 208.882812 175.804688 213.839844 180.753906 213.839844 186.859375 L 213.839844 268.328125 C 213.839844 274.433594 208.882812 279.382812 202.765625 279.382812 " fill-opacity="1" fill-rule="nonzero"/><path fill="#ffffff" d="M 143.109375 248.367188 L 134.949219 252.910156 C 134.519531 253.148438 127.335938 257.128906 118.597656 260.777344 C 138.484375 259.578125 172.128906 253.96875 176.234375 229.933594 C 178.316406 217.734375 175.773438 208.417969 168.667969 202.25 C 157.652344 192.671875 138.132812 193.015625 123.667969 197.597656 C 107.285156 202.789062 95.230469 218.007812 97.339844 230.832031 C 99.253906 242.472656 112.527344 248.984375 133.765625 248.535156 Z M 105.890625 261.046875 L 105.898438 261.046875 Z M 106.429688 265.105469 Z M 108.640625 265.746094 C 107.507812 265.746094 106.554688 265.730469 105.796875 265.714844 C 104.5 265.691406 103.441406 264.738281 103.277344 263.453125 C 103.109375 262.160156 103.902344 260.96875 105.160156 260.613281 C 111.886719 258.730469 119.222656 255.53125 124.621094 252.941406 C 98.863281 250.84375 93.722656 237.628906 92.726562 231.585938 C 90.21875 216.347656 103.464844 199.101562 122.253906 193.148438 C 141.425781 187.074219 160.84375 189.261719 171.738281 198.726562 C 177.523438 203.753906 183.800781 213.386719 180.839844 230.71875 C 175.304688 263.148438 124.664062 265.746094 108.640625 265.746094 " fill-opacity="1" fill-rule="nonzero"/><path fill="#48494b" d="M 198.84375 157.59375 L 73.765625 157.59375 C 67.652344 157.59375 62.695312 152.644531 62.695312 146.539062 L 62.695312 65.070312 C 62.695312 58.964844 67.652344 54.015625 73.765625 54.015625 L 198.84375 54.015625 C 204.957031 54.015625 209.914062 58.964844 209.914062 65.070312 L 209.914062 146.539062 C 209.914062 152.644531 204.957031 157.59375 198.84375 157.59375 " fill-opacity="1" fill-rule="nonzero"/><path fill="#74767b" d="M 204.546875 158.105469 L 79.46875 158.105469 C 73.351562 158.105469 68.398438 153.15625 68.398438 147.046875 L 68.398438 65.582031 C 68.398438 59.472656 73.351562 54.523438 79.46875 54.523438 L 204.546875 54.523438 C 210.660156 54.523438 215.613281 59.472656 215.613281 65.582031 L 215.613281 147.046875 C 215.613281 153.15625 210.660156 158.105469 204.546875 158.105469 " fill-opacity="1" fill-rule="nonzero"/><path fill="#efeff4" d="M 104.925781 72.382812 C 101.214844 72.382812 98.191406 75.402344 98.191406 79.109375 L 98.191406 132.621094 C 98.191406 136.328125 101.214844 139.347656 104.925781 139.347656 L 174.316406 139.347656 C 178.027344 139.347656 181.050781 136.328125 181.050781 132.621094 L 181.050781 79.109375 C 181.050781 75.402344 178.027344 72.382812 174.316406 72.382812 Z M 174.316406 142.917969 L 104.925781 142.917969 C 99.242188 142.917969 94.613281 138.300781 94.613281 132.621094 L 94.613281 79.109375 C 94.613281 73.429688 99.242188 68.8125 104.925781 68.8125 L 174.316406 68.8125 C 180 68.8125 184.625 73.429688 184.625 79.109375 L 184.625 132.621094 C 184.625 138.300781 180 142.917969 174.316406 142.917969 " fill-opacity="1" fill-rule="nonzero"/><path fill="#efeff4" d="M 139.460938 106.058594 L 97.632812 74.722656 L 99.777344 71.867188 L 139.519531 101.636719 L 180.261719 72.773438 L 182.332031 75.6875 L 139.460938 106.058594 " fill-opacity="1" fill-rule="nonzero"/><path fill="#efeff4" d="M 179.742188 139.59375 L 153.71875 93.542969 L 156.832031 91.789062 L 182.855469 137.839844 L 179.742188 139.59375 " fill-opacity="1" fill-rule="nonzero"/><path fill="#efeff4" d="M 99.6875 139.179688 L 96.558594 137.453125 L 122.128906 91.15625 L 125.261719 92.882812 L 99.6875 139.179688 " fill-opacity="1" fill-rule="nonzero"/><path fill="#48494b" d="M 197.046875 404.015625 L 71.96875 404.015625 C 65.855469 404.015625 60.898438 399.066406 60.898438 392.960938 L 60.898438 311.496094 C 60.898438 305.390625 65.855469 300.4375 71.96875 300.4375 L 197.046875 300.4375 C 203.160156 300.4375 208.117188 305.390625 208.117188 311.496094 L 208.117188 392.960938 C 208.117188 399.066406 203.160156 404.015625 197.046875 404.015625 " fill-opacity="1" fill-rule="nonzero"/><path fill="#74767b" d="M 202.765625 404.015625 L 77.691406 404.015625 C 71.578125 404.015625 66.621094 399.066406 66.621094 392.960938 L 66.621094 311.496094 C 66.621094 305.390625 71.578125 300.4375 77.691406 300.4375 L 202.765625 300.4375 C 208.882812 300.4375 213.839844 305.390625 213.839844 311.496094 L 213.839844 392.960938 C 213.839844 399.066406 208.882812 404.015625 202.765625 404.015625 " fill-opacity="1" fill-rule="nonzero"/><path fill="#efeff4" d="M 145.199219 378.21875 C 153.46875 384 160.394531 386.402344 165.78125 385.363281 C 168.972656 384.742188 171.597656 382.890625 173.582031 379.851562 L 175.769531 376.507812 C 176.324219 375.660156 176.089844 374.511719 175.246094 373.953125 L 161.371094 364.71875 C 160.144531 363.902344 158.523438 364.191406 157.660156 365.375 L 156.648438 366.933594 C 155.101562 369.308594 152.59375 370.808594 149.769531 371.054688 C 146.960938 371.296875 144.246094 370.257812 142.316406 368.203125 L 125.507812 351.421875 C 123.449219 349.492188 122.410156 346.78125 122.652344 343.972656 C 122.898438 341.152344 124.402344 338.652344 126.78125 337.109375 L 128.339844 336.097656 C 129.523438 335.234375 129.816406 333.613281 129 332.390625 L 119.75 318.535156 C 119.1875 317.695312 118.039062 317.460938 117.191406 318.011719 L 113.84375 320.195312 C 110.800781 322.179688 108.945312 324.800781 108.328125 327.988281 C 107.285156 333.367188 109.691406 340.28125 115.480469 348.539062 C 118.796875 353.269531 140.460938 374.902344 145.199219 378.21875 Z M 163.265625 389.164062 C 157.527344 389.164062 150.777344 386.476562 143.148438 381.140625 L 143.144531 381.140625 C 138.101562 377.613281 116.082031 355.625 112.546875 350.589844 C 106.183594 341.507812 103.582031 333.675781 104.816406 327.308594 C 105.613281 323.195312 108.058594 319.699219 111.890625 317.203125 L 115.238281 315.019531 C 117.722656 313.40625 121.082031 314.09375 122.722656 316.550781 L 131.976562 330.410156 C 133.875 333.253906 133.179688 337.039062 130.386719 339.027344 L 130.324219 339.070312 L 128.726562 340.105469 C 127.28125 341.042969 126.367188 342.566406 126.21875 344.28125 C 126.066406 345.996094 126.707031 347.652344 127.96875 348.828125 L 128.011719 348.871094 L 144.910156 365.746094 C 146.085938 367.007812 147.746094 367.644531 149.460938 367.492188 C 151.179688 367.347656 152.707031 366.433594 153.648438 364.984375 L 154.722656 363.332031 C 156.710938 360.542969 160.503906 359.84375 163.355469 361.746094 L 177.230469 370.980469 C 179.695312 372.625 180.382812 375.976562 178.765625 378.457031 L 176.578125 381.804688 C 174.078125 385.628906 170.582031 388.074219 166.460938 388.867188 C 165.433594 389.066406 164.367188 389.164062 163.265625 389.164062 " fill-opacity="1" fill-rule="nonzero"/><path fill="#333435" d="M 313.386719 296.371094 C 313.332031 296.375 313.277344 296.375 313.222656 296.375 L 241.011719 296.304688 C 239.226562 296.300781 237.78125 294.828125 237.785156 293.015625 C 237.785156 291.199219 239.242188 289.699219 241.019531 289.730469 L 313.226562 289.804688 C 315.011719 289.804688 316.460938 291.277344 316.457031 293.09375 C 316.453125 294.851562 315.09375 296.285156 313.386719 296.371094 " fill-opacity="1" fill-rule="nonzero"/><path fill="#333435" d="M 213.046875 224.347656 C 213.074219 224.398438 213.101562 224.449219 213.125 224.5 L 243.503906 291.21875 C 244.257812 292.867188 243.554688 294.824219 241.9375 295.585938 C 240.320312 296.347656 238.371094 295.636719 237.652344 293.980469 L 207.269531 227.265625 C 206.519531 225.617188 207.21875 223.660156 208.835938 222.894531 C 210.402344 222.15625 212.253906 222.808594 213.046875 224.347656 " fill-opacity="1" fill-rule="nonzero"/><path fill="#333435" d="M 320.328125 403.605469 C 320.328125 403.605469 320.960938 407.109375 321.210938 411.269531 C 321.316406 413.042969 320.003906 414.582031 318.230469 414.753906 C 312.070312 415.351562 298.039062 416.453125 289.078125 415.164062 C 287.824219 414.984375 287.328125 413.445312 288.253906 412.582031 C 291.949219 409.140625 300.871094 402.457031 315.550781 400.996094 L 320.328125 403.605469 " fill-opacity="1" fill-rule="nonzero"/><g clip-path="url(#d426781fcb)"><g clip-path="url(#4069ac5a87)"><g clip-path="url(#bbc9f2b810)"><path fill="#ffffff" d="M 306.054688 398.839844 L 317.988281 410.53125 L 329.714844 398.597656 L 317.773438 386.90625 Z M 306.054688 398.839844 " fill-opacity="1" fill-rule="nonzero"/></g></g></g><path fill="#333435" d="M 376.671875 409.683594 C 376.671875 409.683594 370.433594 414.894531 368.003906 421.582031 C 367.332031 423.421875 368.746094 425.359375 370.707031 425.359375 L 383.546875 425.359375 C 385.425781 425.359375 386.867188 423.671875 386.539062 421.824219 C 385.722656 417.207031 383.363281 409.699219 376.671875 409.683594 " fill-opacity="1" fill-rule="nonzero"/><g clip-path="url(#4bd6f424ca)"><g clip-path="url(#f0034d1704)"><g clip-path="url(#d30d1bb024)"><path fill="#efeff4" d="M 386.492188 402.34375 L 375.179688 400.171875 L 372.75 412.78125 L 384.0625 414.953125 Z M 386.492188 402.34375 " fill-opacity="1" fill-rule="nonzero"/></g></g></g><path fill="#333435" d="M 351.214844 277.527344 L 313.257812 393.164062 C 313.257812 393.164062 320.539062 397.925781 324.007812 397.726562 L 369.09375 304.792969 C 369.09375 304.792969 376.980469 362.058594 373.15625 403.167969 L 386.074219 404.148438 C 386.074219 404.148438 407.070312 299.09375 391.167969 263.109375 L 351.214844 277.527344 " fill-opacity="1" fill-rule="nonzero"/><path fill="#5c5e61" d="M 368.847656 303.796875 L 368.894531 303.792969 C 369.09375 303.769531 369.238281 303.582031 369.210938 303.382812 L 367.738281 291.707031 C 367.714844 291.507812 367.53125 291.367188 367.328125 291.390625 C 367.128906 291.414062 366.984375 291.597656 367.011719 291.796875 L 368.480469 303.472656 C 368.503906 303.660156 368.664062 303.796875 368.847656 303.796875 " fill-opacity="1" fill-rule="nonzero"/><path fill="#f7e057" d="M 344.101562 175.773438 C 344.101562 175.773438 374.851562 178.5 370.503906 200.382812 C 370.503906 200.382812 387.503906 232.328125 395.449219 269.960938 C 395.707031 271.183594 394.886719 272.378906 393.652344 272.589844 L 342.4375 281.347656 C 341.023438 281.589844 339.660156 280.707031 339.304688 279.320312 L 327.066406 232.097656 L 322.296875 254.054688 L 307.144531 250.113281 L 319.902344 185.589844 C 319.902344 185.589844 321.679688 176.175781 344.101562 175.773438 " fill-opacity="1" fill-rule="nonzero"/><path fill="#ecc538" d="M 326.808594 229.980469 C 326.832031 229.980469 326.859375 229.980469 326.890625 229.976562 C 327.09375 229.929688 327.226562 229.726562 327.179688 229.523438 L 322.914062 209.945312 C 322.867188 209.742188 322.664062 209.609375 322.457031 209.65625 C 322.253906 209.699219 322.121094 209.90625 322.167969 210.109375 L 326.433594 229.683594 C 326.472656 229.859375 326.632812 229.980469 326.808594 229.980469 " fill-opacity="1" fill-rule="nonzero"/><g clip-path="url(#1a2c20488e)"><g clip-path="url(#ebdd2e0ef9)"><g clip-path="url(#9116d22c06)"><path fill="#ffffff" d="M 319.308594 254.125 L 318.851562 294.949219 L 357.484375 295.375 L 357.9375 254.554688 Z M 319.308594 254.125 " fill-opacity="1" fill-rule="nonzero"/></g></g></g><g clip-path="url(#5f1235ffff)"><g clip-path="url(#ed7a613513)"><g clip-path="url(#f7000deed6)"><g clip-path="url(#dabdfa8346)"><path fill="#ffffff" d="M 304.789062 289.742188 L 349.984375 210.628906 L 268.5 164.207031 L 223.304688 243.320312 Z M 304.789062 289.742188 " fill-opacity="1" fill-rule="nonzero"/></g></g></g></g><g clip-path="url(#2de0689f9c)"><g clip-path="url(#44d406f11b)"><g clip-path="url(#8769ad56ef)"><g clip-path="url(#e2860667e7)"><path fill="url(#1343a433f6)" d="M 332.929688 195.878906 L 359.449219 172.117188 L 335.007812 144.914062 L 308.488281 168.675781 Z M 332.929688 195.878906 " fill-rule="nonzero"/></g></g></g></g><g clip-path="url(#f50673bf6f)"><g clip-path="url(#1502d1919f)"><g clip-path="url(#05e8796a05)"><g clip-path="url(#035a9d4b2f)"><path fill="url(#e3565cc668)" d="M 325.207031 180.125 L 341.320312 145.601562 L 310.101562 131.070312 L 293.988281 165.59375 Z M 325.207031 180.125 " fill-rule="nonzero"/></g></g></g></g><path fill="#333435" d="M 321.816406 146.5 L 325.523438 159.613281 C 325.574219 159.78125 325.597656 159.953125 325.597656 160.128906 C 325.601562 161.195312 325.335938 164.875 321.578125 164.375 C 318.175781 163.921875 315.058594 163.558594 313.078125 164.488281 C 312.1875 164.910156 311.761719 165.929688 312.09375 166.855469 C 312.925781 169.15625 314.886719 174.3125 317.277344 178.527344 C 317.761719 179.386719 318.824219 179.71875 319.71875 179.3125 C 322.421875 178.082031 328.046875 175.339844 332.054688 172.070312 C 332.597656 171.625 332.859375 170.925781 332.726562 170.242188 C 332.097656 166.886719 330.21875 156.683594 330.136719 153.761719 C 330.058594 151.015625 333.144531 148.917969 334.5 148.132812 C 334.945312 147.871094 335.261719 147.449219 335.382812 146.949219 C 335.8125 145.183594 336.171875 141.183594 331.066406 140.300781 C 329.996094 140.117188 329.300781 139.097656 329.515625 138.035156 C 329.949219 135.921875 329.808594 132.8125 325.792969 131.667969 C 321.707031 130.503906 319.140625 132.960938 317.832031 134.84375 C 317.304688 135.601562 316.316406 135.847656 315.46875 135.46875 C 314.988281 135.257812 314.402344 135.246094 313.777344 135.773438 C 312.9375 136.484375 311.652344 136.269531 311.03125 135.355469 C 309.839844 133.605469 307.675781 131.859375 304.015625 133.042969 C 297.519531 135.144531 297.828125 142.625 300.207031 146.691406 C 302.59375 150.761719 309.507812 148.082031 312.78125 145.386719 C 315.273438 143.335938 319.0625 144.566406 320.734375 145.269531 C 321.265625 145.492188 321.660156 145.945312 321.816406 146.5 " fill-opacity="1" fill-rule="nonzero"/><g clip-path="url(#278c7c36e8)"><g clip-path="url(#20f64f98dd)"><g clip-path="url(#c542b5097b)"><g clip-path="url(#9a590c66d1)"><path fill="url(#464bca0d4d)" d="M 332.644531 162.550781 L 342.546875 153.675781 L 333.492188 143.601562 L 323.589844 152.472656 Z M 332.644531 162.550781 " fill-rule="nonzero"/></g></g></g></g><path fill="#ecc538" d="M 354.503906 256.804688 C 356.605469 256.804688 358.101562 256.648438 358.265625 256.628906 L 358.535156 256.597656 L 369.730469 204.460938 C 369.78125 204.253906 369.648438 204.054688 369.441406 204.011719 C 369.230469 203.964844 369.03125 204.09375 368.988281 204.304688 L 357.90625 255.898438 C 356.238281 256.042969 347.339844 256.632812 342.644531 253.3125 L 352.34375 208.015625 L 350.320312 204.203125 C 350.21875 204.015625 349.992188 203.949219 349.804688 204.042969 C 349.617188 204.144531 349.546875 204.375 349.644531 204.5625 L 351.539062 208.125 L 341.792969 253.628906 L 341.988281 253.777344 C 345.386719 256.324219 350.851562 256.804688 354.503906 256.804688 " fill-opacity="1" fill-rule="nonzero"/><path fill="#888b8f" d="M 293.234375 302.488281 C 293.527344 303.480469 321.488281 389.273438 328.578125 411.023438 C 329.394531 413.527344 327.117188 415.988281 323.980469 415.988281 C 321.792969 415.988281 319.886719 414.757812 319.359375 413 L 288.316406 310.046875 L 293.234375 302.488281 " fill-opacity="1" fill-rule="nonzero"/><path fill="#888b8f" d="M 277.917969 302.488281 C 277.628906 303.480469 249.664062 389.273438 242.574219 411.023438 C 241.757812 413.527344 244.039062 415.988281 247.171875 415.988281 C 249.359375 415.988281 251.265625 414.757812 251.796875 413 L 282.835938 310.046875 L 277.917969 302.488281 " fill-opacity="1" fill-rule="nonzero"/><path fill="#888b8f" d="M 276.753906 299.066406 L 294.167969 299.066406 L 294.167969 313.03125 C 294.167969 315.039062 292.558594 316.664062 290.574219 316.664062 L 288.183594 316.664062 L 288.183594 348.039062 C 288.183594 349.558594 286.964844 350.789062 285.460938 350.789062 C 283.957031 350.789062 282.738281 349.558594 282.738281 348.039062 L 282.738281 316.664062 L 281.527344 316.664062 C 278.890625 316.664062 276.753906 314.503906 276.753906 311.839844 L 276.753906 299.066406 " fill-opacity="1" fill-rule="nonzero"/><path fill="#888b8f" d="M 347.378906 295.710938 L 225.515625 295.710938 C 223.8125 295.710938 222.324219 296.636719 221.902344 297.96875 L 220.199219 303.285156 C 219.585938 305.199219 221.386719 307.0625 223.835938 307.050781 L 348.878906 306.46875 C 351.304688 306.457031 353.074219 304.617188 352.480469 302.722656 L 351 297.984375 C 350.582031 296.648438 349.089844 295.710938 347.378906 295.710938 " fill-opacity="1" fill-rule="nonzero"/></svg>